<svg xmlns="http://www.w3.org/2000/svg" xmlns:xlink="http://www.w3.org/1999/xlink" width="1000" zoomAndPan="magnify" viewBox="0 0 750 749.999995" height="1000" preserveAspectRatio="xMidYMid meet" version="1.0"><defs><clipPath id="19b970cccd"><path d="M 0 4.273438 L 750 4.273438 L 750 745.71875 L 0 745.71875 Z M 0 4.273438 " clip-rule="nonzero"/></clipPath></defs><g clip-path="url(#19b970cccd)"><path fill="#f9f9f9" d="M 639.53125 190.378906 L 536.808594 131.070312 L 536.808594 249.6875 Z M 640.820312 414.160156 L 536.816406 354.109375 L 536.816406 374.253906 L 640.820312 434.304688 Z M 536.820312 348.148438 L 640.820312 408.195312 L 640.820312 389.539062 L 536.816406 329.496094 Z M 640.820312 364.929688 L 536.816406 304.882812 L 536.816406 323.539062 L 640.820312 383.582031 Z M 640.820312 340.3125 L 536.816406 280.261719 L 536.816406 298.921875 L 640.820312 358.96875 Z M 640.820312 314.199219 C 606.144531 294.214844 571.480469 274.167969 536.816406 254.152344 L 536.816406 274.308594 L 640.820312 334.351562 Z M 588.820312 35.042969 C 607.023438 45.527344 625.21875 56.042969 643.40625 66.558594 L 643.40625 131.070312 L 532.949219 67.296875 Z M 588.820312 96.582031 L 639.535156 67.296875 L 588.820312 38.019531 L 538.105469 67.296875 Z M 640.820312 69.535156 L 591.394531 98.070312 L 640.820312 126.605469 Z M 214.460938 241.847656 L 110.457031 181.800781 L 110.457031 200.457031 L 214.460938 260.503906 Z M 214.460938 217.234375 L 110.457031 157.1875 L 110.457031 175.84375 L 214.460938 235.886719 Z M 214.460938 192.613281 L 110.457031 132.566406 L 110.457031 151.226562 L 214.460938 211.273438 Z M 233.203125 178.820312 L 129.191406 118.765625 L 113.03125 128.09375 L 217.046875 188.144531 Z M 254.519531 166.511719 L 150.507812 106.460938 L 134.351562 115.785156 L 238.363281 175.835938 Z M 319.769531 128.84375 L 215.753906 68.789062 L 198.308594 78.863281 L 302.320312 138.914062 Z M 217.046875 262.742188 L 259.03125 286.984375 L 276.476562 276.910156 L 217.046875 242.597656 Z M 233.84375 301.523438 L 217.046875 291.828125 L 217.046875 311.222656 Z M 217.046875 287.355469 L 237.714844 299.289062 L 255.160156 289.214844 L 217.046875 267.210938 Z M 427.636719 289.589844 L 323.636719 229.542969 L 323.636719 251.175781 L 427.636719 311.222656 Z M 427.636719 264.972656 L 323.636719 204.925781 L 323.636719 226.5625 L 427.636719 286.609375 Z M 427.636719 240.359375 L 323.636719 180.3125 L 323.636719 201.945312 L 427.636719 261.992188 Z M 260.945312 288.832031 L 364.976562 348.898438 L 383.714844 338.082031 L 279.675781 278.011719 Z M 341.078125 362.691406 L 237.058594 302.632812 L 218.332031 313.457031 L 322.347656 373.507812 Z M 239.636719 301.144531 L 343.660156 361.203125 L 362.394531 350.386719 L 258.363281 290.320312 Z M 214.460938 291.078125 L 110.457031 231.03125 L 110.457031 251.179688 L 214.460938 311.222656 Z M 110.457031 225.074219 L 214.460938 285.117188 L 214.460938 266.464844 L 110.457031 206.417969 Z M 275.835938 154.203125 L 171.824219 94.152344 L 155.664062 103.480469 L 259.679688 163.53125 Z M 176.984375 91.167969 L 280.996094 151.222656 L 297.160156 141.894531 L 193.144531 81.839844 Z M 297.796875 264.605469 L 217.046875 217.980469 L 217.046875 238.128906 L 280.351562 274.671875 Z M 217.046875 213.511719 L 301.667969 262.367188 L 319.117188 252.289062 L 217.046875 193.359375 Z M 321.050781 179.5625 L 279.058594 155.316406 L 261.609375 165.390625 L 321.050781 199.707031 Z M 304.238281 140.78125 L 321.050781 150.484375 L 321.050781 131.074219 Z M 321.050781 154.945312 L 300.378906 143.011719 L 282.929688 153.085938 L 321.050781 175.09375 Z M 240.289062 177.699219 L 321.050781 224.328125 L 321.050781 204.179688 L 257.738281 167.625 Z M 321.050781 228.789062 L 236.425781 179.929688 L 218.976562 190.003906 L 321.050781 248.9375 Z M 405.035156 325.769531 L 301 265.707031 L 282.257812 276.523438 L 386.292969 336.589844 Z M 303.582031 264.21875 L 407.609375 324.28125 L 426.355469 313.460938 L 322.339844 253.40625 Z M 427.636719 215.746094 L 323.636719 155.699219 L 323.636719 177.332031 L 427.636719 237.378906 Z M 323.636719 152.714844 L 427.636719 212.765625 L 427.636719 191.117188 L 323.636719 131.070312 Z M 324.917969 128.84375 L 428.933594 188.890625 L 532.949219 128.84375 L 428.933594 68.789062 Z M 57.160156 405.019531 C 57.160156 426.03125 57.128906 447.042969 57.164062 468.050781 L 1.296875 500.304688 C 1.273438 457.792969 1.289062 415.28125 1.289062 372.769531 Z M 53.300781 467.304688 L 3.871094 438.765625 L 3.871094 495.839844 Z M 3.871094 435.792969 L 54.589844 465.078125 L 54.585938 406.507812 L 3.863281 377.226562 Z M 57.164062 157.378906 L 57.164062 223.386719 L 0 190.378906 Z M 54.578125 161.84375 L 5.152344 190.378906 L 54.578125 218.914062 Z M 322.34375 4.273438 C 340.976562 15.007812 359.59375 25.777344 378.214844 36.535156 C 359.59375 47.285156 340.957031 58.019531 322.34375 68.789062 C 303.730469 58.019531 285.09375 47.285156 266.476562 36.535156 Z M 322.34375 7.253906 L 271.625 36.535156 L 322.34375 65.816406 L 373.058594 36.535156 Z M 321.050781 375.742188 L 217.046875 315.691406 L 217.046875 435.792969 L 321.050781 495.839844 Z M 427.644531 557.386719 L 427.648438 435.792969 L 532.945312 374.996094 L 428.929688 314.945312 C 393.800781 335.160156 358.75 355.5 323.636719 375.738281 L 323.636719 497.335938 Z M 430.222656 462.652344 L 430.222656 482.796875 L 534.226562 422.746094 L 534.226562 402.601562 Z M 534.226562 377.234375 L 430.222656 437.28125 L 430.222656 458.179688 L 534.226562 398.128906 Z M 430.222656 507.40625 L 534.226562 447.359375 L 534.226562 427.214844 L 430.222656 487.265625 Z M 430.222656 532.027344 L 534.226562 471.976562 L 534.226562 451.832031 L 430.222656 511.878906 Z M 534.226562 476.445312 L 430.222656 536.496094 L 430.222656 557.386719 L 534.226562 497.335938 Z M 197.011719 325.765625 L 197.015625 445.867188 L 214.472656 435.792969 L 214.46875 315.691406 Z M 175.691406 338.074219 L 175.691406 458.179688 L 191.863281 448.839844 L 191.859375 328.742188 Z M 154.371094 350.382812 L 154.371094 470.488281 L 170.542969 461.152344 L 170.539062 341.046875 Z M 133.058594 362.691406 L 133.058594 482.796875 L 149.222656 473.460938 L 149.21875 353.359375 Z M 110.457031 495.839844 L 127.910156 485.769531 L 127.902344 365.667969 L 110.457031 375.738281 Z M 233.847656 547.683594 L 129.839844 487.632812 L 111.746094 498.078125 L 215.757812 558.125 Z M 133.710938 485.398438 L 237.71875 545.445312 L 255.164062 535.375 L 151.152344 475.324219 Z M 197.667969 448.472656 L 301.671875 508.519531 L 319.761719 498.078125 L 215.757812 438.023438 Z M 276.480469 523.066406 L 172.472656 463.015625 L 155.023438 473.09375 L 259.035156 533.140625 Z M 176.34375 460.785156 L 280.351562 520.832031 L 297.800781 510.753906 L 193.796875 450.707031 Z M 159.882812 590.382812 L 110.457031 561.851562 L 110.457031 618.921875 Z M 165.039062 590.386719 L 107.875 623.390625 L 107.875 557.386719 Z M 532.949219 621.148438 L 430.222656 561.84375 L 430.222656 680.457031 Z M 237.074219 693.511719 L 341.082031 633.457031 L 322.34375 622.640625 L 218.332031 682.695312 Z M 301.027344 730.4375 L 405.046875 670.386719 L 386.304688 659.566406 L 282.292969 719.621094 Z M 407.621094 671.875 L 303.609375 731.925781 L 322.347656 742.746094 L 426.363281 682.695312 Z M 258.394531 705.824219 L 362.40625 645.769531 L 343.664062 634.949219 L 239.652344 695 Z M 364.984375 647.257812 L 260.976562 707.3125 L 279.710938 718.132812 L 383.722656 658.078125 Z M 534.234375 131.070312 L 430.226562 191.117188 L 430.226562 312.714844 L 534.226562 372.761719 C 534.226562 292.191406 534.234375 211.640625 534.234375 131.070312 Z M 431.511719 559.621094 L 538.101562 621.15625 C 466.195312 662.691406 394.289062 704.234375 322.347656 745.71875 C 285.953125 724.730469 249.566406 703.710938 213.183594 682.695312 C 249.566406 661.675781 285.976562 640.707031 322.34375 619.671875 L 427.648438 680.460938 C 427.648438 640.425781 427.667969 600.394531 427.644531 560.363281 C 392.527344 540.128906 357.433594 519.847656 322.34375 499.5625 L 215.757812 561.105469 C 179.757812 540.410156 143.820312 519.59375 107.871094 498.816406 L 107.871094 375.734375 L 0.0078125 313.457031 L 107.871094 251.179688 L 107.871094 128.101562 C 143.832031 107.335938 179.761719 86.515625 215.757812 65.816406 L 322.347656 127.351562 L 428.929688 65.816406 C 500.90625 107.234375 572.769531 148.859375 644.6875 190.378906 L 538.101562 251.921875 L 642.109375 311.972656 L 749.992188 249.691406 C 749.992188 292.203125 750.015625 334.71875 749.984375 377.230469 C 714.460938 356.722656 678.941406 336.191406 643.40625 315.691406 L 643.40625 438.773438 C 607.878906 418.261719 572.335938 397.765625 536.8125 377.234375 L 536.8125 498.816406 C 501.726562 519.097656 466.632812 539.386719 431.511719 559.621094 Z M 213.179688 313.457031 L 109.164062 253.40625 L 5.152344 313.457031 L 109.167969 373.507812 C 143.839844 353.492188 178.511719 333.476562 213.179688 313.457031 Z M 747.414062 254.148438 L 644.6875 313.457031 L 747.414062 372.765625 L 747.414062 254.148438 " fill-opacity="1" fill-rule="nonzero"/></g></svg>