<svg xmlns="http://www.w3.org/2000/svg"  viewBox="0 0 64 64" width="64px" height="64px"><linearGradient id="2MZBxiUqcc30pKJwBUECQa" x1="46" x2="46" y1="35.085" y2="40.418" gradientUnits="userSpaceOnUse"><stop offset="0" stop-color="#6dc7ff"/><stop offset="1" stop-color="#e6abff"/></linearGradient><circle cx="46" cy="38" r="4" fill="url(#2MZBxiUqcc30pKJwBUECQa)"/><linearGradient id="2MZBxiUqcc30pKJwBUECQb" x1="18" x2="18" y1="35.085" y2="40.418" gradientUnits="userSpaceOnUse"><stop offset="0" stop-color="#6dc7ff"/><stop offset="1" stop-color="#e6abff"/></linearGradient><circle cx="18" cy="38" r="4" fill="url(#2MZBxiUqcc30pKJwBUECQb)"/><linearGradient id="2MZBxiUqcc30pKJwBUECQc" x1="32" x2="32" y1="6.234" y2="56.624" gradientUnits="userSpaceOnUse"><stop offset="0" stop-color="#1a6dff"/><stop offset="1" stop-color="#c822ff"/></linearGradient><path fill="url(#2MZBxiUqcc30pKJwBUECQc)" d="M36,14c0-2.206-1.794-4-4-4s-4,1.794-4,4s1.794,4,4,4S36,16.206,36,14z M30,14 c0-1.103,0.897-2,2-2s2,0.897,2,2s-0.897,2-2,2S30,15.103,30,14z"/><linearGradient id="2MZBxiUqcc30pKJwBUECQd" x1="32" x2="32" y1="6.234" y2="56.624" gradientUnits="userSpaceOnUse"><stop offset="0" stop-color="#1a6dff"/><stop offset="1" stop-color="#c822ff"/></linearGradient><path fill="url(#2MZBxiUqcc30pKJwBUECQd)" d="M54,50.142V50c0-2.206-1.794-4-4-4c-1.383,0-2.539-0.946-2.884-2.221 c0.441-0.245,0.763-0.674,0.854-1.187C49.749,41.826,51,40.057,51,38c0-2.414-1.721-4.434-4-4.899V33c0-2.757-2.243-5-5-5h-6 c-1.654,0-3-1.346-3-3v-1.158c0.588-0.27,1-0.861,1-1.549v-0.556c3.445-0.892,6-4.017,6-7.737c0-4.411-3.589-8-8-8s-8,3.589-8,8 c0,3.719,2.555,6.845,6,7.737v0.556c0,0.688,0.412,1.28,1,1.549V25c0,1.654-1.346,3-3,3h-6c-2.757,0-5,2.243-5,5v0.101 c-2.279,0.465-4,2.484-4,4.899c0,2.057,1.251,3.826,3.03,4.593c0.092,0.513,0.414,0.942,0.854,1.187C16.539,45.054,15.383,46,14,46 c-2.206,0-4,1.794-4,4v0.142C8.279,50.589,7,52.141,7,54c0,2.206,1.794,4,4,4s4-1.794,4-4c0-1.859-1.279-3.411-3-3.858V50 c0-1.103,0.897-2,2-2c1.641,0,3.088-0.806,4-2.031C18.912,47.194,20.359,48,22,48c1.103,0,2,0.897,2,2v0.142 c-1.721,0.447-3,1.999-3,3.858c0,2.206,1.794,4,4,4s4-1.794,4-4c0-1.859-1.279-3.411-3-3.858V50c0-2.206-1.794-4-4-4 c-1.383,0-2.539-0.946-2.884-2.221c0.441-0.245,0.763-0.674,0.854-1.187C21.749,41.826,23,40.057,23,38 c0-2.414-1.721-4.434-4-4.899V33c0-1.654,1.346-3,3-3h6c1.641,0,3.088-0.806,4-2.031C32.912,29.194,34.359,30,36,30h6 c1.654,0,3,1.346,3,3v0.101c-2.279,0.465-4,2.484-4,4.899c0,2.057,1.251,3.826,3.03,4.593c0.092,0.513,0.414,0.942,0.854,1.187 C44.539,45.054,43.383,46,42,46c-2.206,0-4,1.794-4,4v0.142c-1.721,0.447-3,1.999-3,3.858c0,2.206,1.794,4,4,4s4-1.794,4-4 c0-1.859-1.279-3.411-3-3.858V50c0-1.103,0.897-2,2-2c1.641,0,3.088-0.806,4-2.031C46.912,47.194,48.359,48,50,48 c1.103,0,2,0.897,2,2v0.142c-1.721,0.447-3,1.999-3,3.858c0,2.206,1.794,4,4,4s4-1.794,4-4C57,52.141,55.721,50.589,54,50.142z M13,54c0,1.103-0.897,2-2,2s-2-0.897-2-2s0.897-2,2-2S13,52.897,13,54z M27,54c0,1.103-0.897,2-2,2s-2-0.897-2-2s0.897-2,2-2 S27,52.897,27,54z M21,38c0,1.654-1.346,3-3,3s-3-1.346-3-3s1.346-3,3-3S21,36.346,21,38z M26,14c0-3.309,2.691-6,6-6s6,2.691,6,6 s-2.691,6-6,6S26,17.309,26,14z M41,54c0,1.103-0.897,2-2,2s-2-0.897-2-2s0.897-2,2-2S41,52.897,41,54z M43,38c0-1.654,1.346-3,3-3 s3,1.346,3,3s-1.346,3-3,3S43,39.654,43,38z M53,56c-1.103,0-2-0.897-2-2s0.897-2,2-2s2,0.897,2,2S54.103,56,53,56z"/></svg>
