<svg xmlns="http://www.w3.org/2000/svg"  viewBox="0 0 64 64" width="64px" height="64px"><linearGradient id="p5Wjwia__4mRlkigyoOUNa" x1="19" x2="19" y1="16.957" y2="20.63" gradientUnits="userSpaceOnUse"><stop offset="0" stop-color="#6dc7ff"/><stop offset="1" stop-color="#e6abff"/></linearGradient><path fill="url(#p5Wjwia__4mRlkigyoOUNa)" d="M16,22v-4.667C16,16.597,16.597,16,17.333,16H22L16,22z"/><linearGradient id="p5Wjwia__4mRlkigyoOUNb" x1="24.5" x2="24.5" y1="25.702" y2="40.001" gradientUnits="userSpaceOnUse"><stop offset="0" stop-color="#6dc7ff"/><stop offset="1" stop-color="#e6abff"/></linearGradient><path fill="url(#p5Wjwia__4mRlkigyoOUNb)" d="M26.75,25h-4.5C21.007,25,20,26.007,20,27.25v12.188C20,39.748,20.252,40,20.563,40h1.699 C22.669,40,23,39.669,23,39.262V36h3v3.262C26,39.669,26.331,40,26.738,40h1.699C28.748,40,29,39.748,29,39.438V27.25 C29,26.007,27.993,25,26.75,25z M26,32.262C26,32.669,25.669,33,25.262,33h-1.523C23.331,33,23,32.669,23,32.262v-3.523 C23,28.331,23.331,28,23.738,28h1.523C25.669,28,26,28.331,26,28.738V32.262z"/><linearGradient id="p5Wjwia__4mRlkigyoOUNc" x1="35.515" x2="35.515" y1="25.702" y2="40.001" gradientUnits="userSpaceOnUse"><stop offset="0" stop-color="#6dc7ff"/><stop offset="1" stop-color="#e6abff"/></linearGradient><path fill="url(#p5Wjwia__4mRlkigyoOUNc)" d="M37.009,25H34.02c-1.651,0-2.989,1.338-2.989,2.989v11.208c0,0.413,0.334,0.747,0.747,0.747 h1.495c0.413,0,0.747-0.335,0.747-0.747v-4.208h2.989c1.651,0,2.989-1.338,2.989-2.989v-4.011C39.998,26.338,38.66,25,37.009,25z M37.009,31.253c0,0.413-0.334,0.747-0.747,0.747h-1.577c-0.413,0-0.747-0.335-0.747-0.747v-2.517c0-0.413,0.334-0.747,0.747-0.747 h1.577c0.413,0,0.747,0.335,0.747,0.747V31.253z"/><linearGradient id="p5Wjwia__4mRlkigyoOUNd" x1="43.5" x2="43.5" y1="25.702" y2="40.001" gradientUnits="userSpaceOnUse"><stop offset="0" stop-color="#6dc7ff"/><stop offset="1" stop-color="#e6abff"/></linearGradient><path fill="url(#p5Wjwia__4mRlkigyoOUNd)" d="M44.253,25h-1.506C42.334,25,42,25.335,42,25.747v13.506C42,39.665,42.334,40,42.747,40 h1.506C44.666,40,45,39.665,45,39.253V25.747C45,25.335,44.666,25,44.253,25z"/><g><linearGradient id="p5Wjwia__4mRlkigyoOUNe" x1="32" x2="32" y1="8.191" y2="56.422" gradientUnits="userSpaceOnUse"><stop offset="0" stop-color="#1a6dff"/><stop offset="1" stop-color="#c822ff"/></linearGradient><path fill="url(#p5Wjwia__4mRlkigyoOUNe)" d="M53,8H11c-1.654,0-3,1.346-3,3v42c0,1.654,1.346,3,3,3h42c1.654,0,3-1.346,3-3V11 C56,9.346,54.654,8,53,8z M54,53c0,0.551-0.448,1-1,1H11c-0.552,0-1-0.449-1-1V11c0-0.551,0.448-1,1-1h42c0.552,0,1,0.449,1,1V53z"/><linearGradient id="p5Wjwia__4mRlkigyoOUNf" x1="32" x2="32" y1="8.191" y2="56.422" gradientUnits="userSpaceOnUse"><stop offset="0" stop-color="#1a6dff"/><stop offset="1" stop-color="#c822ff"/></linearGradient><path fill="url(#p5Wjwia__4mRlkigyoOUNf)" d="M51,12H13c-0.553,0-1,0.448-1,1v38c0,0.552,0.447,1,1,1h38c0.553,0,1-0.448,1-1V13 C52,12.448,51.553,12,51,12z M50,50h-2v-5h-2v5h-2v-3h-2v3h-2v-2h-2v2H14V14h36V50z"/></g></svg>