<svg xmlns="http://www.w3.org/2000/svg"  viewBox="0 0 64 64" width="64px" height="64px"><linearGradient id="04fBuuQ8sDk56RVoFImzaa" x1="32" x2="32" y1="15.333" y2="23.848" gradientUnits="userSpaceOnUse" spreadMethod="reflect"><stop offset="0" stop-color="#6dc7ff"/><stop offset="1" stop-color="#e6abff"/></linearGradient><path fill="url(#04fBuuQ8sDk56RVoFImzaa)" d="M25,23c0-3.866,3.134-7,7-7s7,3.134,7,7"/><linearGradient id="04fBuuQ8sDk56RVoFImzab" x1="32" x2="32" y1="5.5" y2="60.037" gradientUnits="userSpaceOnUse" spreadMethod="reflect"><stop offset="0" stop-color="#1a6dff"/><stop offset="1" stop-color="#c822ff"/></linearGradient><path fill="url(#04fBuuQ8sDk56RVoFImzab)" d="M54,34v-3c0-1.654-1.346-3-3-3h-3v-3c0-1.654-1.346-3-3-3h-2.051 c-0.183-2.021-0.919-3.881-2.05-5.439l3.979-3.183C45.495,13.766,46.219,14,47,14c2.206,0,4-1.794,4-4s-1.794-4-4-4s-4,1.794-4,4 c0,0.696,0.195,1.342,0.509,1.912l-3.925,3.14C37.608,13.167,34.94,12,32,12s-5.608,1.167-7.584,3.052l-3.925-3.14 C20.805,11.342,21,10.696,21,10c0-2.206-1.794-4-4-4s-4,1.794-4,4s1.794,4,4,4c0.781,0,1.505-0.234,2.121-0.622l3.979,3.183 c-1.131,1.558-1.866,3.418-2.05,5.439H19c-1.654,0-3,1.346-3,3v3h-3c-1.654,0-3,1.346-3,3v3h2v-3c0-0.552,0.449-1,1-1h3v8h-3 c-1.654,0-3,1.346-3,3v3h2v-3c0-0.552,0.449-1,1-1h3v2c0,2.122,0.424,4.145,1.178,6H15c-1.654,0-3,1.346-3,3v3h2v-3 c0-0.552,0.449-1,1-1h3.165c2.772,4.774,7.928,8,13.835,8s11.063-3.226,13.835-8H49c0.551,0,1,0.448,1,1v3h2v-3c0-1.654-1.346-3-3-3 h-2.178C47.576,46.145,48,44.122,48,42v-2h3c0.551,0,1,0.448,1,1v3h2v-3c0-1.654-1.346-3-3-3h-3v-8h3c0.551,0,1,0.448,1,1v3H54z M47,8c1.103,0,2,0.897,2,2s-0.897,2-2,2s-2-0.897-2-2S45.897,8,47,8z M15,10c0-1.103,0.897-2,2-2s2,0.897,2,2s-0.897,2-2,2 S15,11.103,15,10z M32,14c4.624,0,8.442,3.506,8.941,8H23.059C23.558,17.506,27.376,14,32,14z M19,24h26c0.551,0,1,0.448,1,1v1H18 v-1C18,24.448,18.449,24,19,24z M18,42v-6h5v-2h-5v-2h9v-2h-9v-2h13v27.949C23.747,55.433,18,49.382,18,42z M33,55.949V28h13v2h-9v2 h9v2h-5v2h5v6C46,49.382,40.253,55.433,33,55.949z"/></svg>
