<svg xmlns="http://www.w3.org/2000/svg"  viewBox="0 0 64 64" width="64px" height="64px"><linearGradient id="88aIyoqvh0riks2P3qJiKa" x1="32" x2="32" y1="43" y2="56" gradientUnits="userSpaceOnUse" spreadMethod="reflect"><stop offset="0" stop-color="#6dc7ff"/><stop offset="1" stop-color="#e6abff"/></linearGradient><path fill="url(#88aIyoqvh0riks2P3qJiKa)" d="M24,50c0-2.414,1.721-4.434,4-4.899V56h2V45h1h3v11h2V45.101c2.279,0.465,4,2.484,4,4.899v6h2 v-6c0-3.859-3.141-7-7-7h-4h-2c-3.859,0-7,3.141-7,7v6h2V50z"/><linearGradient id="88aIyoqvh0riks2P3qJiKb" x1="32" x2="32" y1="0" y2="57.128" gradientUnits="userSpaceOnUse" spreadMethod="reflect"><stop offset="0" stop-color="#1a6dff"/><stop offset="1" stop-color="#c822ff"/></linearGradient><path fill="url(#88aIyoqvh0riks2P3qJiKb)" d="M32,8c-2.205,0-4-1.795-4-4s1.795-4,4-4s4,1.795,4,4S34.205,8,32,8z M32,2 c-1.103,0-2,0.897-2,2s0.897,2,2,2c1.103,0,2-0.897,2-2S33.103,2,32,2z"/><linearGradient id="88aIyoqvh0riks2P3qJiKc" x1="32" x2="32" y1="0" y2="57.128" gradientUnits="userSpaceOnUse" spreadMethod="reflect"><stop offset="0" stop-color="#1a6dff"/><stop offset="1" stop-color="#c822ff"/></linearGradient><path fill="url(#88aIyoqvh0riks2P3qJiKc)" d="M31 7H33V14H31z"/><linearGradient id="88aIyoqvh0riks2P3qJiKd" x1="56.5" x2="56.5" y1="0" y2="57.128" gradientUnits="userSpaceOnUse" spreadMethod="reflect"><stop offset="0" stop-color="#1a6dff"/><stop offset="1" stop-color="#c822ff"/></linearGradient><path fill="url(#88aIyoqvh0riks2P3qJiKd)" d="M57,42h-4c-0.553,0-1-0.447-1-1V30c0-0.553,0.447-1,1-1h4c2.206,0,4,1.794,4,4v5 C61,40.206,59.206,42,57,42z M54,40h3c1.103,0,2-0.897,2-2v-5c0-1.103-0.897-2-2-2h-3V40z"/><linearGradient id="88aIyoqvh0riks2P3qJiKe" x1="7.5" x2="7.5" y1="0" y2="57.128" gradientUnits="userSpaceOnUse" spreadMethod="reflect"><stop offset="0" stop-color="#1a6dff"/><stop offset="1" stop-color="#c822ff"/></linearGradient><path fill="url(#88aIyoqvh0riks2P3qJiKe)" d="M11,42H7c-2.206,0-4-1.794-4-4v-5c0-2.206,1.794-4,4-4h4c0.553,0,1,0.447,1,1v11 C12,41.553,11.553,42,11,42z M7,31c-1.103,0-2,0.897-2,2v5c0,1.103,0.897,2,2,2h3v-9H7z"/><linearGradient id="88aIyoqvh0riks2P3qJiKf" x1="22.5" x2="22.5" y1="30" y2="37" gradientUnits="userSpaceOnUse" spreadMethod="reflect"><stop offset="0" stop-color="#6dc7ff"/><stop offset="1" stop-color="#e6abff"/></linearGradient><path fill="url(#88aIyoqvh0riks2P3qJiKf)" d="M22.5 30A3.5 3.5 0 1 0 22.5 37A3.5 3.5 0 1 0 22.5 30Z"/><linearGradient id="88aIyoqvh0riks2P3qJiKg" x1="41.5" x2="41.5" y1="30" y2="37" gradientUnits="userSpaceOnUse" spreadMethod="reflect"><stop offset="0" stop-color="#6dc7ff"/><stop offset="1" stop-color="#e6abff"/></linearGradient><path fill="url(#88aIyoqvh0riks2P3qJiKg)" d="M41.5 30A3.5 3.5 0 1 0 41.5 37A3.5 3.5 0 1 0 41.5 30Z"/><linearGradient id="88aIyoqvh0riks2P3qJiKh" x1="32" x2="32" y1="0" y2="57.128" gradientUnits="userSpaceOnUse" spreadMethod="reflect"><stop offset="0" stop-color="#1a6dff"/><stop offset="1" stop-color="#c822ff"/></linearGradient><path fill="url(#88aIyoqvh0riks2P3qJiKh)" d="M32,26c-3.309,0-6-2.691-6-6v-4c0-1.654,1.346-3,3-3h6c1.654,0,3,1.346,3,3v4 C38,23.309,35.309,26,32,26z M29,15c-0.552,0-1,0.448-1,1v4c0,2.206,1.794,4,4,4s4-1.794,4-4v-4c0-0.552-0.448-1-1-1H29z"/><linearGradient id="88aIyoqvh0riks2P3qJiKi" x1="23" x2="23" y1="0" y2="57.128" gradientUnits="userSpaceOnUse" spreadMethod="reflect"><stop offset="0" stop-color="#1a6dff"/><stop offset="1" stop-color="#c822ff"/></linearGradient><path fill="url(#88aIyoqvh0riks2P3qJiKi)" d="M22 17H24V23H22z"/><linearGradient id="88aIyoqvh0riks2P3qJiKj" x1="19" x2="19" y1="0" y2="57.128" gradientUnits="userSpaceOnUse" spreadMethod="reflect"><stop offset="0" stop-color="#1a6dff"/><stop offset="1" stop-color="#c822ff"/></linearGradient><path fill="url(#88aIyoqvh0riks2P3qJiKj)" d="M18 17H20V21H18z"/><linearGradient id="88aIyoqvh0riks2P3qJiKk" x1="45" x2="45" y1="0" y2="57.128" gradientUnits="userSpaceOnUse" spreadMethod="reflect"><stop offset="0" stop-color="#1a6dff"/><stop offset="1" stop-color="#c822ff"/></linearGradient><path fill="url(#88aIyoqvh0riks2P3qJiKk)" d="M44 17H46V21H44z"/><linearGradient id="88aIyoqvh0riks2P3qJiKl" x1="41" x2="41" y1="0" y2="57.128" gradientUnits="userSpaceOnUse" spreadMethod="reflect"><stop offset="0" stop-color="#1a6dff"/><stop offset="1" stop-color="#c822ff"/></linearGradient><path fill="url(#88aIyoqvh0riks2P3qJiKl)" d="M40 17H42V23H40z"/><linearGradient id="88aIyoqvh0riks2P3qJiKm" x1="50" x2="50" y1="0" y2="57.128" gradientUnits="userSpaceOnUse" spreadMethod="reflect"><stop offset="0" stop-color="#1a6dff"/><stop offset="1" stop-color="#c822ff"/></linearGradient><path fill="url(#88aIyoqvh0riks2P3qJiKm)" d="M51,51h-9v-2h9c2.757,0,5-2.243,5-5v-3h2v3C58,47.859,54.859,51,51,51z"/><linearGradient id="88aIyoqvh0riks2P3qJiKn" x1="45.5" x2="45.5" y1="0" y2="57.128" gradientUnits="userSpaceOnUse" spreadMethod="reflect"><stop offset="0" stop-color="#1a6dff"/><stop offset="1" stop-color="#c822ff"/></linearGradient><path fill="url(#88aIyoqvh0riks2P3qJiKn)" d="M52,27v19.816c1.161-0.414,2-1.514,2-2.816v-5V27c0-6.065-4.935-11-11-11h-6v2h6 C47.963,18,52,22.037,52,27z"/><linearGradient id="88aIyoqvh0riks2P3qJiKo" x1="32" x2="32" y1="0" y2="57.128" gradientUnits="userSpaceOnUse" spreadMethod="reflect"><stop offset="0" stop-color="#1a6dff"/><stop offset="1" stop-color="#c822ff"/></linearGradient><path fill="url(#88aIyoqvh0riks2P3qJiKo)" d="M52,52.941V55H12V27c0-4.963,4.037-9,9-9h6v-2h-6c-6.065,0-11,4.935-11,11v29 c0,0.553,0.447,1,1,1h42c0.553,0,1-0.447,1-1v-3.525C53.362,52.702,52.695,52.864,52,52.941z"/><linearGradient id="88aIyoqvh0riks2P3qJiKp" x1="22.5" x2="22.5" y1="0" y2="57.128" gradientUnits="userSpaceOnUse" spreadMethod="reflect"><stop offset="0" stop-color="#1a6dff"/><stop offset="1" stop-color="#c822ff"/></linearGradient><path fill="url(#88aIyoqvh0riks2P3qJiKp)" d="M22.5,38c-2.482,0-4.5-2.018-4.5-4.5s2.018-4.5,4.5-4.5s4.5,2.018,4.5,4.5S24.982,38,22.5,38 z M22.5,31c-1.378,0-2.5,1.122-2.5,2.5s1.122,2.5,2.5,2.5s2.5-1.122,2.5-2.5S23.878,31,22.5,31z"/><linearGradient id="88aIyoqvh0riks2P3qJiKq" x1="41.5" x2="41.5" y1="0" y2="57.128" gradientUnits="userSpaceOnUse" spreadMethod="reflect"><stop offset="0" stop-color="#1a6dff"/><stop offset="1" stop-color="#c822ff"/></linearGradient><path fill="url(#88aIyoqvh0riks2P3qJiKq)" d="M41.5,38c-2.482,0-4.5-2.018-4.5-4.5s2.018-4.5,4.5-4.5s4.5,2.018,4.5,4.5S43.982,38,41.5,38 z M41.5,31c-1.378,0-2.5,1.122-2.5,2.5s1.122,2.5,2.5,2.5s2.5-1.122,2.5-2.5S42.878,31,41.5,31z"/><path fill="#b02cff" d="M43,53h-2c-1.657,0-3-1.343-3-3v0c0-1.657,1.343-3,3-3h2c1.657,0,3,1.343,3,3v0 C46,51.657,44.657,53,43,53z"/></svg>