<svg xmlns="http://www.w3.org/2000/svg"  viewBox="0 0 64 64" width="64px" height="64px"><linearGradient id="SsMNA4lKXkLi7q8Kp7FuQa" x1="32" x2="32" y1="21.125" y2="47.125" gradientUnits="userSpaceOnUse" spreadMethod="reflect"><stop offset="0" stop-color="#6dc7ff"/><stop offset="1" stop-color="#e6abff"/></linearGradient><path fill="url(#SsMNA4lKXkLi7q8Kp7FuQa)" d="M52,47H12c-1.103,0-2-0.897-2-2V23c0-1.103,0.897-2,2-2h40c1.103,0,2,0.897,2,2v22 C54,46.103,53.103,47,52,47z M12,23v22h40V23H12z"/><linearGradient id="SsMNA4lKXkLi7q8Kp7FuQb" x1="12" x2="12" y1="12.833" y2="15.375" gradientUnits="userSpaceOnUse" spreadMethod="reflect"><stop offset="0" stop-color="#6dc7ff"/><stop offset="1" stop-color="#e6abff"/></linearGradient><path fill="url(#SsMNA4lKXkLi7q8Kp7FuQb)" d="M10 13H14V15H10z"/><linearGradient id="SsMNA4lKXkLi7q8Kp7FuQc" x1="18" x2="18" y1="12.833" y2="15.375" gradientUnits="userSpaceOnUse" spreadMethod="reflect"><stop offset="0" stop-color="#6dc7ff"/><stop offset="1" stop-color="#e6abff"/></linearGradient><path fill="url(#SsMNA4lKXkLi7q8Kp7FuQc)" d="M16 13H20V15H16z"/><linearGradient id="SsMNA4lKXkLi7q8Kp7FuQd" x1="24" x2="24" y1="12.833" y2="15.375" gradientUnits="userSpaceOnUse" spreadMethod="reflect"><stop offset="0" stop-color="#6dc7ff"/><stop offset="1" stop-color="#e6abff"/></linearGradient><path fill="url(#SsMNA4lKXkLi7q8Kp7FuQd)" d="M22 13H26V15H22z"/><linearGradient id="SsMNA4lKXkLi7q8Kp7FuQe" x1="32" x2="32" y1="8.75" y2="55.5" gradientUnits="userSpaceOnUse" spreadMethod="reflect"><stop offset="0" stop-color="#1a6dff"/><stop offset="1" stop-color="#c822ff"/></linearGradient><path fill="url(#SsMNA4lKXkLi7q8Kp7FuQe)" d="M55,9H9c-1.654,0-3,1.346-3,3v36c0,1.654,1.346,3,3,3h46c1.654,0,3-1.346,3-3V12 C58,10.346,56.654,9,55,9z M56,12v5h-6v-6h5C55.552,11,56,11.448,56,12z M9,11h39v6H8v-5C8,11.448,8.448,11,9,11z M55,49H9 c-0.552,0-1-0.448-1-1V19h48v29C56,48.552,55.552,49,55,49z"/><linearGradient id="SsMNA4lKXkLi7q8Kp7FuQf" x1="32" x2="32" y1="8.75" y2="55.5" gradientUnits="userSpaceOnUse" spreadMethod="reflect"><stop offset="0" stop-color="#1a6dff"/><stop offset="1" stop-color="#c822ff"/></linearGradient><path fill="url(#SsMNA4lKXkLi7q8Kp7FuQf)" d="M8 53H56V55H8z"/><linearGradient id="SsMNA4lKXkLi7q8Kp7FuQg" x1="24.939" x2="24.939" y1="8.75" y2="55.5" gradientUnits="userSpaceOnUse" spreadMethod="reflect"><stop offset="0" stop-color="#1a6dff"/><stop offset="1" stop-color="#c822ff"/></linearGradient><path fill="url(#SsMNA4lKXkLi7q8Kp7FuQg)" d="M22.707,27.293l-1.414,1.414l5.294,5.292l-5.294,5.294l1.414,1.414l5.294-5.294 c0.779-0.779,0.779-2.046,0-2.825L22.707,27.293z"/><linearGradient id="SsMNA4lKXkLi7q8Kp7FuQh" x1="37" x2="37" y1="8.75" y2="55.5" gradientUnits="userSpaceOnUse" spreadMethod="reflect"><stop offset="0" stop-color="#1a6dff"/><stop offset="1" stop-color="#c822ff"/></linearGradient><path fill="url(#SsMNA4lKXkLi7q8Kp7FuQh)" d="M32 38H42V40H32z"/></svg>
