<svg xmlns="http://www.w3.org/2000/svg"  viewBox="0 0 64 64" width="64px" height="64px"><linearGradient id="8sMYFy1vRd_j4QMchtsmVa" x1="31.109" x2="32.609" y1="5.089" y2="59.595" gradientUnits="userSpaceOnUse"><stop offset="0" stop-color="#1a6dff"/><stop offset="1" stop-color="#c822ff"/></linearGradient><path fill="url(#8sMYFy1vRd_j4QMchtsmVa)" d="M54.77,48.559l-8.752-9.864c-0.719-0.812-1.995-0.92-2.845-0.243l-2.486,1.973l-4.125-4.994	c3.337-3.106,5.439-7.521,5.439-12.429C42.001,13.627,34.374,6,24.999,6S7.997,13.627,7.997,23.002s7.627,17.002,17.002,17.002	c3.749,0,7.207-1.234,10.021-3.298l4.099,4.963l-2.366,1.877c-0.434,0.344-0.698,0.832-0.746,1.374	c-0.047,0.539,0.127,1.06,0.49,1.469l8.753,9.865C46.272,57.406,47.739,58,49.215,58c1.169,0,2.344-0.373,3.307-1.137l1.607-1.274	c1.08-0.858,1.739-2.068,1.856-3.406C56.1,50.859,55.669,49.572,54.77,48.559z M9.997,23.002C9.997,14.73,16.727,8,24.999,8	s15.002,6.73,15.002,15.002s-6.729,15.002-15.002,15.002S9.997,31.274,9.997,23.002z M48.642,44.666l-6.467,5.133l-1.477-1.656	l6.472-5.136L48.642,44.666z M44.418,40.018c0.013-0.01,0.03-0.014,0.049-0.014c0.022,0,0.045,0.007,0.055,0.018l1.319,1.487	l-6.476,5.139l-1.368-1.534L44.418,40.018z M52.885,54.022l-1.607,1.274c-1.361,1.081-3.394,0.915-4.532-0.369l-3.239-3.632	l6.464-5.13l3.303,3.722c0.53,0.598,0.785,1.351,0.718,2.122C53.924,52.795,53.53,53.51,52.885,54.022z"/><linearGradient id="8sMYFy1vRd_j4QMchtsmVb" x1="25" x2="25" y1="13.702" y2="30.329" gradientUnits="userSpaceOnUse"><stop offset="0" stop-color="#6dc7ff"/><stop offset="1" stop-color="#e6abff"/></linearGradient><polygon fill="url(#8sMYFy1vRd_j4QMchtsmVb)" points="21.617,31.4 23.543,31.938 28.383,14.6 26.457,14.063"/><linearGradient id="8sMYFy1vRd_j4QMchtsmVc" x1="33.158" x2="33.158" y1="13.702" y2="30.329" gradientUnits="userSpaceOnUse"><stop offset="0" stop-color="#6dc7ff"/><stop offset="1" stop-color="#e6abff"/></linearGradient><path fill="url(#8sMYFy1vRd_j4QMchtsmVc)" d="M36.395,21.57l-5.472-5.358l-1.398,1.43l5.471,5.31l-5.669,5.174l1.348,1.477l5.669-5.173 c0.408-0.372,0.638-0.876,0.647-1.418C37.001,22.469,36.789,21.957,36.395,21.57z"/><linearGradient id="8sMYFy1vRd_j4QMchtsmVd" x1="16.833" x2="16.833" y1="13.702" y2="30.329" gradientUnits="userSpaceOnUse"><stop offset="0" stop-color="#6dc7ff"/><stop offset="1" stop-color="#e6abff"/></linearGradient><path fill="url(#8sMYFy1vRd_j4QMchtsmVd)" d="M20.467,17.642l-1.398-1.43l-5.473,5.359c-0.394,0.386-0.605,0.897-0.595,1.439 c0.01,0.542,0.239,1.046,0.647,1.417l5.669,5.174l1.348-1.477L14.995,23L20.467,17.642z"/></svg>