<svg xmlns="http://www.w3.org/2000/svg"  viewBox="0 0 64 64" width="64px" height="64px"><linearGradient id="n0HpanqWsEAA7AEC0PCfta" x1="20.5" x2="20.5" y1="14.213" y2="42.705" gradientUnits="userSpaceOnUse"><stop offset="0" stop-color="#6dc7ff"/><stop offset="1" stop-color="#e6abff"/></linearGradient><rect width="13" height="2" x="14" y="15" fill="url(#n0HpanqWsEAA7AEC0PCfta)"/><linearGradient id="n0HpanqWsEAA7AEC0PCftb" x1="19" x2="19" y1="14.213" y2="42.705" gradientUnits="userSpaceOnUse"><stop offset="0" stop-color="#6dc7ff"/><stop offset="1" stop-color="#e6abff"/></linearGradient><rect width="10" height="2" x="14" y="19" fill="url(#n0HpanqWsEAA7AEC0PCftb)"/><linearGradient id="n0HpanqWsEAA7AEC0PCftc" x1="21.5" x2="21.5" y1="14.213" y2="42.705" gradientUnits="userSpaceOnUse"><stop offset="0" stop-color="#6dc7ff"/><stop offset="1" stop-color="#e6abff"/></linearGradient><path fill="url(#n0HpanqWsEAA7AEC0PCftc)" d="M14,43L14,43h15h0V23H14L14,43z M21,25h6v4h-6V25z M21,31h6v4h-6V31z M21,37h6v4h-6V37z M16,25h3v4h-3V25z M16,31h3v4h-3V31z M16,37h3v4h-3V37z"/><linearGradient id="n0HpanqWsEAA7AEC0PCftd" x1="42.5" x2="42.5" y1="14.213" y2="42.705" gradientUnits="userSpaceOnUse"><stop offset="0" stop-color="#6dc7ff"/><stop offset="1" stop-color="#e6abff"/></linearGradient><path fill="url(#n0HpanqWsEAA7AEC0PCftd)" d="M35,17l0,26h0v0h15V17H35z M40,41h-3v-4h3V41z M40,35h-3v-4h3V35z M40,29h-3v-4h3V29z M40,23 h-3v-4h3V23z M48,41h-6v-4h6V41z M48,35h-6v-4h6V35z M48,29h-6v-4h6V29z M48,23h-6v-4h6V23z"/><linearGradient id="n0HpanqWsEAA7AEC0PCfte" x1="32" x2="32" y1="-29" y2="-73" gradientTransform="matrix(1 0 0 -1 0 -19)" gradientUnits="userSpaceOnUse"><stop offset="0" stop-color="#1a6dff"/><stop offset="1" stop-color="#c822ff"/></linearGradient><path fill="url(#n0HpanqWsEAA7AEC0PCfte)" d="M55,14h-1v-1.083C54,11.309,52.691,10,51.083,10H38c-2.548,0-4.775,1.373-6,3.413	C30.775,11.373,28.548,10,26,10H12.917C11.309,10,10,11.309,10,12.917V14H9c-1.654,0-3,1.346-3,3v32c0,1.654,1.346,3,3,3h18	c0,1.103,0.897,2,2,2h6c1.103,0,2-0.897,2-2h18c1.654,0,3-1.346,3-3V17C58,15.346,56.654,14,55,14z M33,17c0-2.757,2.243-5,5-5	h13.083C51.589,12,52,12.411,52,12.917V46H40h-4c-0.286,0-0.563,0.035-0.834,0.084c-0.115,0.02-0.228,0.042-0.341,0.07	c-0.11,0.028-0.216,0.065-0.323,0.1c-0.501,0.159-0.972,0.38-1.392,0.68L33,47V17z M12,12.917C12,12.411,12.411,12,12.917,12H26	c2.757,0,5,2.243,5,5v30l-0.111-0.066c-0.419-0.299-0.89-0.521-1.392-0.68c-0.107-0.035-0.213-0.072-0.323-0.1	c-0.112-0.027-0.225-0.05-0.341-0.07C28.563,46.035,28.286,46,28,46h-4H12V12.917z M56,49c0,0.552-0.448,1-1,1H35v2h-2h-2h-2v-2H9	c-0.552,0-1-0.448-1-1V17c0-0.552,0.448-1,1-1h1v30c0,1.103,0.897,2,2,2h12h4c1.302,0,2.401,0.839,2.816,2h2.369	c0.414-1.161,1.514-2,2.816-2h4h12c1.103,0,2-0.897,2-2v-4v-1V16h1c0.552,0,1,0.448,1,1L56,49L56,49z"/></svg>
