<svg xmlns="http://www.w3.org/2000/svg"  viewBox="0 0 64 64" width="64px" height="64px"><linearGradient id="E5rX1rNHmV6YK1eILZviIa" x1="32" x2="32" y1="8.625" y2="54.658" gradientUnits="userSpaceOnUse" spreadMethod="reflect"><stop offset="0" stop-color="#1a6dff"/><stop offset="1" stop-color="#c822ff"/></linearGradient><path fill="url(#E5rX1rNHmV6YK1eILZviIa)" d="M53,9H11c-1.654,0-3,1.346-3,3v36c0,1.654,1.346,3,3,3h42c1.654,0,3-1.346,3-3V19v-2v-5 C56,10.346,54.654,9,53,9z M54,48c0,0.551-0.448,1-1,1H11c-0.552,0-1-0.449-1-1V19h44V48z M10,17v-5c0-0.551,0.448-1,1-1h42 c0.552,0,1,0.449,1,1v5H10z"/><linearGradient id="E5rX1rNHmV6YK1eILZviIb" x1="32" x2="32" y1="8.625" y2="54.658" gradientUnits="userSpaceOnUse" spreadMethod="reflect"><stop offset="0" stop-color="#1a6dff"/><stop offset="1" stop-color="#c822ff"/></linearGradient><path fill="url(#E5rX1rNHmV6YK1eILZviIb)" d="M14 53H50V55H14z"/><linearGradient id="E5rX1rNHmV6YK1eILZviIc" x1="19.5" x2="19.5" y1="22.875" y2="44.148" gradientUnits="userSpaceOnUse" spreadMethod="reflect"><stop offset="0" stop-color="#6dc7ff"/><stop offset="1" stop-color="#e6abff"/></linearGradient><path fill="url(#E5rX1rNHmV6YK1eILZviIc)" d="M14 23H25V25H14z"/><g><linearGradient id="E5rX1rNHmV6YK1eILZviId" x1="28" x2="28" y1="22.875" y2="44.148" gradientUnits="userSpaceOnUse" spreadMethod="reflect"><stop offset="0" stop-color="#6dc7ff"/><stop offset="1" stop-color="#e6abff"/></linearGradient><path fill="url(#E5rX1rNHmV6YK1eILZviId)" d="M22 29H34V31H22z"/></g><g><linearGradient id="E5rX1rNHmV6YK1eILZviIe" x1="21.5" x2="21.5" y1="22.875" y2="44.148" gradientUnits="userSpaceOnUse" spreadMethod="reflect"><stop offset="0" stop-color="#6dc7ff"/><stop offset="1" stop-color="#e6abff"/></linearGradient><path fill="url(#E5rX1rNHmV6YK1eILZviIe)" d="M14 41H29V43H14z"/></g><g><linearGradient id="E5rX1rNHmV6YK1eILZviIf" x1="42" x2="42" y1="22.875" y2="44.148" gradientUnits="userSpaceOnUse" spreadMethod="reflect"><stop offset="0" stop-color="#6dc7ff"/><stop offset="1" stop-color="#e6abff"/></linearGradient><path fill="url(#E5rX1rNHmV6YK1eILZviIf)" d="M34 35H50V37H34z"/></g></svg>
