<svg xmlns="http://www.w3.org/2000/svg"  viewBox="0 0 64 64" width="64px" height="64px"><linearGradient id="RIFELFryNvZ8E6i7o1hCDa" x1="32" x2="32" y1="-498" y2="-449.493" gradientTransform="translate(0 506)" gradientUnits="userSpaceOnUse"><stop offset="0" stop-color="#1a6dff"/><stop offset="1" stop-color="#c822ff"/></linearGradient><path fill="url(#RIFELFryNvZ8E6i7o1hCDa)" d="M50,8H14c-2.757,0-5,2.243-5,5v38c0,2.757,2.243,5,5,5h36c2.757,0,5-2.243,5-5V13	C55,10.243,52.757,8,50,8z M53,51c0,1.654-1.346,3-3,3H14c-1.654,0-3-1.346-3-3V13c0-1.654,1.346-3,3-3h36c1.654,0,3,1.346,3,3V51z"/><linearGradient id="RIFELFryNvZ8E6i7o1hCDb" x1="40" x2="40" y1="-213" y2="-223" gradientTransform="matrix(1 0 0 -1 0 -186)" gradientUnits="userSpaceOnUse"><stop offset="0" stop-color="#6dc7ff"/><stop offset="1" stop-color="#e6abff"/></linearGradient><path fill="url(#RIFELFryNvZ8E6i7o1hCDb)" d="M38.5,37h-1c-0.276,0-0.5-0.224-0.5-0.5V28c0-0.552,0.448-1,1-1h3c1.105,0,2,0.895,2,2v3	c0,1.105-0.895,2-2,2h-2v2.5C39,36.776,38.776,37,38.5,37z M39,32h1.5c0.276,0,0.5-0.224,0.5-0.5v-2c0-0.276-0.224-0.5-0.5-0.5H39	V32z"/><linearGradient id="RIFELFryNvZ8E6i7o1hCDc" x1="24" x2="24" y1="-213" y2="-223" gradientTransform="matrix(1 0 0 -1 0 -186)" gradientUnits="userSpaceOnUse"><stop offset="0" stop-color="#6dc7ff"/><stop offset="1" stop-color="#e6abff"/></linearGradient><path fill="url(#RIFELFryNvZ8E6i7o1hCDc)" d="M22.5,37h-1c-0.276,0-0.5-0.224-0.5-0.5V28c0-0.552,0.448-1,1-1h3c1.105,0,2,0.895,2,2v3	c0,1.105-0.895,2-2,2h-2v2.5C23,36.776,22.776,37,22.5,37z M23,32h1.5c0.276,0,0.5-0.224,0.5-0.5v-2c0-0.276-0.224-0.5-0.5-0.5H23	V32z"/><linearGradient id="RIFELFryNvZ8E6i7o1hCDd" x1="32" x2="32" y1="-213" y2="-223" gradientTransform="matrix(1 0 0 -1 0 -186)" gradientUnits="userSpaceOnUse"><stop offset="0" stop-color="#6dc7ff"/><stop offset="1" stop-color="#e6abff"/></linearGradient><path fill="url(#RIFELFryNvZ8E6i7o1hCDd)" d="M33,27.5V31h-2v-3.5c0-0.276-0.224-0.5-0.5-0.5h-1c-0.276,0-0.5,0.224-0.5,0.5v9	c0,0.276,0.224,0.5,0.5,0.5h1c0.276,0,0.5-0.224,0.5-0.5V33h2v3.5c0,0.276,0.224,0.5,0.5,0.5h1c0.276,0,0.5-0.224,0.5-0.5v-9	c0-0.276-0.224-0.5-0.5-0.5h-1C33.224,27,33,27.224,33,27.5z"/></svg>
