<svg xmlns="http://www.w3.org/2000/svg"  viewBox="0 0 64 64" width="64px" height="64px"><linearGradient id="8jz1uEGp8KyJ1rUa9~JE6a" x1="28.735" x2="28.735" y1="21.498" y2="49.226" gradientUnits="userSpaceOnUse" spreadMethod="reflect"><stop offset="0" stop-color="#6dc7ff"/><stop offset="1" stop-color="#e6abff"/></linearGradient><path fill="url(#8jz1uEGp8KyJ1rUa9~JE6a)" d="M40.538 45.678L39.15 47.067 16.932 24.849 18.32 23.46z"/><linearGradient id="8jz1uEGp8KyJ1rUa9~JE6b" x1="32.937" x2="31.437" y1="6.792" y2="57.958" gradientUnits="userSpaceOnUse" spreadMethod="reflect"><stop offset="0" stop-color="#1a6dff"/><stop offset="1" stop-color="#c822ff"/></linearGradient><path fill="url(#8jz1uEGp8KyJ1rUa9~JE6b)" d="M55.132,21.365L42.634,8.867c-1.156-1.156-3.035-1.156-4.191,0 c-0.56,0.56-0.868,1.304-0.868,2.096c0,0.478,0.125,0.932,0.336,1.345l-3.566,5.706c-0.924-0.179-1.871-0.273-2.832-0.273 c-3.939,0-7.643,1.533-10.428,4.319l-0.681,0.681l-0.715-0.715c-0.754-0.752-1.982-0.753-2.737,0.001l-1.453,1.453 c-0.366,0.366-0.568,0.853-0.568,1.37c0,0.517,0.202,1.003,0.567,1.368l6.396,6.396L8.37,52.875 c-0.565,0.801-0.476,1.843,0.216,2.535C8.978,55.802,9.48,56,9.984,56c0.389,0,0.778-0.118,1.117-0.357l20.284-13.538l6.396,6.396 c0.377,0.377,0.873,0.566,1.369,0.566s0.991-0.189,1.369-0.566l1.454-1.454c0.755-0.755,0.755-1.982,0-2.737l-0.714-0.714 l0.681-0.682c2.785-2.785,4.319-6.488,4.319-10.427c0-0.962-0.094-1.91-0.273-2.834l5.707-3.567 c0.422,0.215,0.881,0.336,1.344,0.336c0.759,0,1.518-0.288,2.096-0.866h0C55.692,24.996,56,24.251,56,23.46 C56,22.668,55.692,21.924,55.132,21.365z M10.019,54.007l6.646-9.958l2.337,2.336l1.414-1.414l-2.619-2.619l1.091-1.635l2.196,2.196 l1.414-1.414l-2.478-2.479l1.091-1.635l2.056,2.056l1.414-1.414l-2.338-2.338l1.091-1.635l6.609,6.609L10.019,54.007z M39.195,47.086L16.912,24.894l1.363-1.454l22.239,22.239L39.195,47.086z M40.526,41.5l-0.681,0.682L21.818,24.154l0.681-0.681 c2.408-2.408,5.609-3.733,9.014-3.733c3.404,0,6.605,1.325,9.013,3.733c2.407,2.407,3.733,5.608,3.733,9.014 C44.259,35.891,42.933,39.092,40.526,41.5z M41.94,22.059c-1.599-1.6-3.507-2.771-5.583-3.491l2.921-4.674l10.826,10.827 l-4.674,2.921C44.71,25.566,43.539,23.658,41.94,22.059z M53.718,24.142c-0.375,0.376-0.987,0.375-1.363,0L39.857,11.644 c-0.182-0.183-0.282-0.424-0.282-0.682s0.1-0.499,0.282-0.682C40.045,10.093,40.291,10,40.538,10s0.494,0.094,0.682,0.281 l12.498,12.498C53.9,22.961,54,23.203,54,23.46C54,23.717,53.9,23.959,53.718,24.142z"/></svg>
