<svg xmlns="http://www.w3.org/2000/svg"  viewBox="0 0 64 64" width="64px" height="64px"><linearGradient id="SVGID_1_" x1="26.343" x2="26.343" y1="26.234" y2="44.831" gradientUnits="userSpaceOnUse"><stop offset="0" stop-color="#6dc7ff"/><stop offset="1" stop-color="#e6abff"/></linearGradient><polygon fill="url(#SVGID_1_)" points="36.2,50.4 13.6,27.8 16.4,24.9 39.1,47.6"/><linearGradient id="SVGID_2_" x1="32" x2="32" y1="9.638" y2="51.039" gradientUnits="userSpaceOnUse"><stop offset="0" stop-color="#1a6dff"/><stop offset="1" stop-color="#c822ff"/></linearGradient><path fill="url(#SVGID_2_)" d="M54.8,21.3L42.7,9.2c-1.3-1.3-3.5-1.3-4.9,0c-1.3,1.3-1.3,3.5,0,4.9l0.4,0.4l-7.9,7.9	c-4.2-2.9-10.1-2.5-13.9,1.2l0,0l-0.1,0.1c0,0,0,0,0,0l-0.7,0.7l0,0l-2,2l-1.4-1.4l-1.4,1.4l1.4,1.4l0,0l6.8,6.8L8.4,52.8	c-0.5,0.8-0.3,1.8,0.3,2.4c0.4,0.4,0.9,0.6,1.4,0.6c0.3,0,0.7-0.1,1-0.3L29.5,45l6.8,6.8l0,0l1.4,1.4l1.4-1.4l-1.4-1.4l2.8-2.8l0,0	c3.7-3.8,4.1-9.6,1.2-13.9l7.9-7.9l0.4,0.4c0.7,0.7,1.6,1,2.4,1c0.9,0,1.8-0.3,2.4-1C56.2,24.8,56.2,22.6,54.8,21.3z M10.2,53.8	L20.4,36l7.6,7.6L10.2,53.8z M36.2,49L15,27.8l1.4-1.4l21.2,21.2L36.2,49z M39.1,46.1L17.9,24.9c3.5-3.4,9.1-3.4,12.6,0.1l8.5,8.5	c1.7,1.7,2.6,4,2.6,6.4C41.6,42.2,40.7,44.5,39.1,46.1z M46.7,25.8l-3.5-3.5l-1.4,1.4l3.5,3.5l-1.4,1.4l-2.1-2.1l-1.4,1.4l2.1,2.1	l-2.1,2.1c0,0,0,0,0,0l-8.5-8.5l7.8-7.8l8.5,8.5L46.7,25.8z M53.4,24.7c-0.6,0.6-1.5,0.6-2.1,0L51,24.3l0,0L39.7,13l0,0l-0.4-0.4	c-0.6-0.6-0.6-1.5,0-2.1c0.3-0.3,0.7-0.4,1-0.4c0.4,0,0.7,0.1,1,0.4l12.1,12.1C54,23.2,54,24.2,53.4,24.7z"/></svg>