<svg xmlns="http://www.w3.org/2000/svg"  viewBox="0 0 64 64" width="64px" height="64px" fill-rule="evenodd" clip-rule="evenodd"><linearGradient id="9Ri9emNbwjYzpSmJu1hCsa" x1="49" x2="49" y1="39.75" y2="48.251" gradientUnits="userSpaceOnUse" spreadMethod="reflect"><stop offset="0" stop-color="#6dc7ff"/><stop offset="1" stop-color="#e6abff"/></linearGradient><path fill="url(#9Ri9emNbwjYzpSmJu1hCsa)" fill-rule="evenodd" d="M53 40L45 48 53 48z" clip-rule="evenodd"/><linearGradient id="9Ri9emNbwjYzpSmJu1hCsb" x1="31.93" x2="32.055" y1="8.127" y2="58.752" gradientUnits="userSpaceOnUse" spreadMethod="reflect"><stop offset="0" stop-color="#1a6dff"/><stop offset="1" stop-color="#c822ff"/></linearGradient><path fill="url(#9Ri9emNbwjYzpSmJu1hCsb)" d="M55,18h-5v-8c0-0.552-0.447-1-1-1H37c-0.553,0-1,0.448-1,1v8h-8v-8c0-0.552-0.447-1-1-1H15 c-0.553,0-1,0.448-1,1v8H9c-1.654,0-3,1.346-3,3v31c0,0.552,0.447,1,1,1h50c0.553,0,1-0.448,1-1V21C58,19.346,56.654,18,55,18z M38,11h10v7H38V11z M16,11h10v7H16V11z M56,51H8V21c0-0.551,0.448-1,1-1h6h12h10h12h6c0.552,0,1,0.449,1,1V51z"/><linearGradient id="9Ri9emNbwjYzpSmJu1hCsc" x1="17.446" x2="17.571" y1="8.163" y2="58.788" gradientUnits="userSpaceOnUse" spreadMethod="reflect"><stop offset="0" stop-color="#1a6dff"/><stop offset="1" stop-color="#c822ff"/></linearGradient><path fill="url(#9Ri9emNbwjYzpSmJu1hCsc)" d="M10,23v15h2V24h13v-2H11C10.447,22,10,22.448,10,23z"/></svg>