<svg xmlns="http://www.w3.org/2000/svg"  viewBox="0 0 64 64" width="64px" height="64px"><linearGradient id="SVGID_1_" x1="37.5" x2="37.5" y1="-701.75" y2="-706" gradientTransform="matrix(1 0 0 -1 0 -690)" gradientUnits="userSpaceOnUse"><stop offset="0" stop-color="#6dc7ff"/><stop offset="1" stop-color="#e6abff"/></linearGradient><path fill="url(#SVGID_1_)" d="M23,13h29v2H23V13z"/><linearGradient id="SVGID_2_" x1="15" x2="15" y1="-709.125" y2="-712.956" gradientTransform="matrix(1 0 0 -1 0 -690)" gradientUnits="userSpaceOnUse"><stop offset="0" stop-color="#6dc7ff"/><stop offset="1" stop-color="#e6abff"/></linearGradient><path fill="url(#SVGID_2_)" d="M15,19.5c-0.8,0-1.5,0.7-1.5,1.5s0.7,1.5,1.5,1.5s1.5-0.7,1.5-1.5S15.8,19.5,15,19.5z"/><linearGradient id="SVGID_3_" x1="15" x2="15" y1="-715.5" y2="-718.761" gradientTransform="matrix(1 0 0 -1 0 -690)" gradientUnits="userSpaceOnUse"><stop offset="0" stop-color="#6dc7ff"/><stop offset="1" stop-color="#e6abff"/></linearGradient><path fill="url(#SVGID_3_)" d="M15,25.5c-0.8,0-1.5,0.7-1.5,1.5s0.7,1.5,1.5,1.5s1.5-0.7,1.5-1.5S15.8,25.5,15,25.5z"/><linearGradient id="SVGID_4_" x1="15" x2="15" y1="-721.188" y2="-724.743" gradientTransform="matrix(1 0 0 -1 0 -690)" gradientUnits="userSpaceOnUse"><stop offset="0" stop-color="#6dc7ff"/><stop offset="1" stop-color="#e6abff"/></linearGradient><path fill="url(#SVGID_4_)" d="M15,31.5c-0.8,0-1.5,0.7-1.5,1.5s0.7,1.5,1.5,1.5s1.5-0.7,1.5-1.5S15.8,31.5,15,31.5z"/><linearGradient id="SVGID_5_" x1="32" x2="32" y1="7.851" y2="51.939" gradientUnits="userSpaceOnUse"><stop offset="0" stop-color="#1a6dff"/><stop offset="1" stop-color="#c822ff"/></linearGradient><path fill="url(#SVGID_5_)" d="M52,11H20h-8c-1.1,0-2,0.9-2,2v26h44V13C54,11.9,53.1,11,52,11z M12,13h8c0.3,0,0.6,0.1,0.8,0.4L22,15H12V13z M12,17h6v20h-6V17z M52,37H20V17h32V37z M52,15H25c-0.3,0-0.6-0.1-0.8-0.4L23,13h29V15z"/><linearGradient id="SVGID_6_" x1="32" x2="32" y1="7.851" y2="51.939" gradientUnits="userSpaceOnUse"><stop offset="0" stop-color="#1a6dff"/><stop offset="1" stop-color="#c822ff"/></linearGradient><path fill="url(#SVGID_6_)" d="M55,7H9c-1.7,0-3,1.3-3,3v34c0,1.7,1.3,3,3,3h17v4h-4c-1.7,0-3,1.3-3,3v3h26v-3c0-1.7-1.3-3-3-3h-4v-4h17 c1.7,0,3-1.3,3-3V10C58,8.3,56.7,7,55,7z M42,53c0.6,0,1,0.4,1,1v1H21v-1c0-0.6,0.4-1,1-1H42z M28,51v-4h8v4H28z M56,44 c0,0.6-0.4,1-1,1H38H26H9c-0.6,0-1-0.4-1-1V10c0-0.6,0.4-1,1-1h46c0.6,0,1,0.4,1,1V44z"/><linearGradient id="SVGID_7_" x1="49" x2="49" y1="7.851" y2="51.939" gradientUnits="userSpaceOnUse"><stop offset="0" stop-color="#1a6dff"/><stop offset="1" stop-color="#c822ff"/></linearGradient><rect width="6" height="2" x="46" y="41" fill="url(#SVGID_7_)"/><linearGradient id="SVGID_8_" x1="41" x2="41" y1="7.851" y2="51.939" gradientUnits="userSpaceOnUse"><stop offset="0" stop-color="#1a6dff"/><stop offset="1" stop-color="#c822ff"/></linearGradient><rect width="6" height="2" x="38" y="41" fill="url(#SVGID_8_)"/><linearGradient id="SVGID_9_" x1="41" x2="41" y1="7.851" y2="51.939" gradientUnits="userSpaceOnUse"><stop offset="0" stop-color="#1a6dff"/><stop offset="1" stop-color="#c822ff"/></linearGradient><rect width="10" height="2" x="36" y="20" fill="url(#SVGID_9_)"/><linearGradient id="SVGID_10_" x1="29" x2="29" y1="7.851" y2="51.939" gradientUnits="userSpaceOnUse"><stop offset="0" stop-color="#1a6dff"/><stop offset="1" stop-color="#c822ff"/></linearGradient><rect width="10" height="2" x="24" y="20" fill="url(#SVGID_10_)"/><linearGradient id="SVGID_11_" x1="41" x2="41" y1="7.851" y2="51.939" gradientUnits="userSpaceOnUse"><stop offset="0" stop-color="#1a6dff"/><stop offset="1" stop-color="#c822ff"/></linearGradient><rect width="10" height="2" x="36" y="32" fill="url(#SVGID_11_)"/><linearGradient id="SVGID_12_" x1="29" x2="29" y1="7.851" y2="51.939" gradientUnits="userSpaceOnUse"><stop offset="0" stop-color="#1a6dff"/><stop offset="1" stop-color="#c822ff"/></linearGradient><rect width="10" height="2" x="24" y="32" fill="url(#SVGID_12_)"/><linearGradient id="SVGID_13_" x1="27" x2="27" y1="7.851" y2="51.939" gradientUnits="userSpaceOnUse"><stop offset="0" stop-color="#1a6dff"/><stop offset="1" stop-color="#c822ff"/></linearGradient><rect width="6" height="2" x="24" y="24" fill="url(#SVGID_13_)"/><linearGradient id="SVGID_14_" x1="35" x2="35" y1="7.851" y2="51.939" gradientUnits="userSpaceOnUse"><stop offset="0" stop-color="#1a6dff"/><stop offset="1" stop-color="#c822ff"/></linearGradient><rect width="6" height="2" x="32" y="24" fill="url(#SVGID_14_)"/><linearGradient id="SVGID_15_" x1="27" x2="27" y1="7.851" y2="51.939" gradientUnits="userSpaceOnUse"><stop offset="0" stop-color="#1a6dff"/><stop offset="1" stop-color="#c822ff"/></linearGradient><rect width="6" height="2" x="24" y="28" fill="url(#SVGID_15_)"/><linearGradient id="SVGID_16_" x1="35" x2="35" y1="7.851" y2="51.939" gradientUnits="userSpaceOnUse"><stop offset="0" stop-color="#1a6dff"/><stop offset="1" stop-color="#c822ff"/></linearGradient><rect width="6" height="2" x="32" y="28" fill="url(#SVGID_16_)"/></svg>
