<svg xmlns="http://www.w3.org/2000/svg"  viewBox="0 0 64 64" width="64px" height="64px"><linearGradient id="VvA8_j8xqXFmOI3olq2x_a" x1="50.55" x2="50.55" y1="20.085" y2="25.164" gradientUnits="userSpaceOnUse"><stop offset="0" stop-color="#6dc7ff"/><stop offset="1" stop-color="#e6abff"/></linearGradient><path fill="url(#VvA8_j8xqXFmOI3olq2x_a)" d="M47.1,20h4.6c1.27,0,2.3,1.03,2.3,2.3v4.6L47.1,20z"/><g><linearGradient id="VvA8_j8xqXFmOI3olq2x_b" x1="32" x2="32" y1="9.596" y2="54.532" gradientUnits="userSpaceOnUse"><stop offset="0" stop-color="#1a6dff"/><stop offset="1" stop-color="#c822ff"/></linearGradient><path fill="url(#VvA8_j8xqXFmOI3olq2x_b)" d="M55,16.424v-2.347C55,12.381,53.654,11,52,11H22v0.079l-0.289-0.405 C20.961,9.626,19.744,9,18.456,9H11c-2.757,0-5,2.243-5,5v36c0,2.757,2.243,5,5,5h42c2.757,0,5-2.243,5-5V21 C58,18.955,56.763,17.198,55,16.424z M52,13c0.552,0,1,0.483,1,1.077V16H26.029c-0.322,0-0.627-0.156-0.814-0.419L23.372,13H52z M53,53H11c-1.654,0-3-1.346-3-3v-0.026C8.838,50.609,9.87,51,11,51h42c1.13,0,2.162-0.391,3-1.026V50C56,51.654,54.654,53,53,53z M56,46c0,1.654-1.346,3-3,3H11c-1.302,0-2.402-0.839-2.816-2H17v-2H8v-2h6v-2H8v-2h4v-2H8V14c0-1.654,1.346-3,3-3h7.456 c0.645,0,1.253,0.313,1.628,0.837l3.504,4.906C24.149,17.53,25.062,18,26.029,18H53c1.654,0,3,1.346,3,3V46z"/><linearGradient id="VvA8_j8xqXFmOI3olq2x_c" x1="38.467" x2="38.467" y1="9.596" y2="54.532" gradientUnits="userSpaceOnUse"><stop offset="0" stop-color="#1a6dff"/><stop offset="1" stop-color="#c822ff"/></linearGradient><rect width="9.066" height="2" x="33.934" y="39.934" fill="url(#VvA8_j8xqXFmOI3olq2x_c)"/><linearGradient id="VvA8_j8xqXFmOI3olq2x_d" x1="29.906" x2="29.906" y1="9.596" y2="54.532" gradientUnits="userSpaceOnUse"><stop offset="0" stop-color="#1a6dff"/><stop offset="1" stop-color="#c822ff"/></linearGradient><path fill="url(#VvA8_j8xqXFmOI3olq2x_d)" d="M33.933,31.586l-7.226-7.226l-1.414,1.414L32.52,33l-7.227,7.227l1.414,1.414l7.226-7.226 C34.714,33.633,34.714,32.367,33.933,31.586z"/></g></svg>