<svg xmlns="http://www.w3.org/2000/svg"  viewBox="0 0 64 64" width="64px" height="64px"><linearGradient id="Q4JwG7tctdkvQuHAkzDoCa" x1="32.499" x2="32.499" y1="6.745" y2="57.298" gradientUnits="userSpaceOnUse"><stop offset="0" stop-color="#1a6dff"/><stop offset="1" stop-color="#c822ff"/></linearGradient><path fill="url(#Q4JwG7tctdkvQuHAkzDoCa)" d="M51.096,34.668c-0.668-1.013-0.668-2.323,0-3.336l4.403-6.672	c0.612-0.927,0.665-2.11,0.138-3.09c-0.521-0.969-1.525-1.57-2.62-1.57H45v-4c0-1.654-1.346-3-3-3H15.617	C16.461,12.266,17,11.199,17,10c0-2.207-1.793-4-4-4c-2.203,0-4,1.793-4,4c0,1.414,0.742,2.652,1.855,3.363	C10.34,13.727,10,14.324,10,15v43h2V15h2v43h2V39h8l5.828,5.828c0.75,0.75,1.768,1.172,2.828,1.172h20.36	c1.095,0,2.099-0.602,2.62-1.57c0.527-0.979,0.474-2.163-0.138-3.09L51.096,34.668z M13,12c-1.102,0-2-0.898-2-2s0.898-2,2-2	c1.105,0,2,0.898,2,2S14.105,12,13,12z M16,15h26c0.551,0,1,0.448,1,1v20c0,0.552-0.449,1-1,1H16V15z M53.875,43.481	C53.792,43.638,53.54,44,53.017,44H32.979C32.439,44,32,43.552,32,43v-4h10c1.654,0,3-1.346,3-3V22h8.017	c0.523,0,0.775,0.362,0.858,0.519c0.18,0.335,0.163,0.724-0.046,1.04l-4.403,6.672c-1.109,1.683-1.109,3.856,0,5.539l4.403,6.672	C54.039,42.758,54.056,43.146,53.875,43.481z"/><linearGradient id="Q4JwG7tctdkvQuHAkzDoCb" x1="22.33" x2="22.33" y1="19.16" y2="31.989" gradientUnits="userSpaceOnUse"><stop offset="0" stop-color="#6dc7ff"/><stop offset="1" stop-color="#e6abff"/></linearGradient><path fill="url(#Q4JwG7tctdkvQuHAkzDoCb)" d="M24.278,20.268l-4.622,4.292c-0.404,0.375-0.636,0.9-0.636,1.44s0.232,1.065,0.635,1.439 l4.59,4.264l1.361-1.465l-4.59-4.213l4.622-4.293L24.278,20.268z"/><linearGradient id="Q4JwG7tctdkvQuHAkzDoCc" x1="36.66" x2="36.66" y1="19.16" y2="31.989" gradientUnits="userSpaceOnUse"><stop offset="0" stop-color="#6dc7ff"/><stop offset="1" stop-color="#e6abff"/></linearGradient><path fill="url(#Q4JwG7tctdkvQuHAkzDoCc)" d="M39.334,24.561l-4.622-4.293l-1.361,1.465l4.622,4.242l-4.59,4.264l1.361,1.465l4.59-4.264 c0.403-0.375,0.635-0.899,0.635-1.439S39.737,24.936,39.334,24.561z"/><linearGradient id="Q4JwG7tctdkvQuHAkzDoCd" x1="29.5" x2="29.5" y1="19.16" y2="31.989" gradientUnits="userSpaceOnUse"><stop offset="0" stop-color="#6dc7ff"/><stop offset="1" stop-color="#e6abff"/></linearGradient><polygon fill="url(#Q4JwG7tctdkvQuHAkzDoCd)" points="26.001,32.145 27.861,32.879 32.999,19.855 31.139,19.121"/></svg>
