<svg xmlns="http://www.w3.org/2000/svg"  viewBox="0 0 64 64" width="64px" height="64px"><linearGradient id="ADwYbKNZ8OpYNfxgXJ4Qha" x1="19" x2="19" y1="-1720.813" y2="-1727.053" gradientTransform="matrix(1 0 0 -1 0 -1698)" gradientUnits="userSpaceOnUse"><stop offset="0" stop-color="#6dc7ff"/><stop offset="1" stop-color="#e6abff"/></linearGradient><path fill="url(#ADwYbKNZ8OpYNfxgXJ4Qha)" d="M26,28c0,0.552-0.448,1-1,1H13c-0.552,0-1-0.448-1-1v-4c0-0.552,0.448-1,1-1h12	c0.552,0,1,0.448,1,1V28z"/><linearGradient id="ADwYbKNZ8OpYNfxgXJ4Qhb" x1="17" x2="17" y1="7.766" y2="52.362" gradientUnits="userSpaceOnUse"><stop offset="0" stop-color="#1a6dff"/><stop offset="1" stop-color="#c822ff"/></linearGradient><rect width="10" height="2" x="12" y="13" fill="url(#ADwYbKNZ8OpYNfxgXJ4Qhb)"/><linearGradient id="ADwYbKNZ8OpYNfxgXJ4Qhc" x1="35" x2="35" y1="7.766" y2="52.362" gradientUnits="userSpaceOnUse"><stop offset="0" stop-color="#1a6dff"/><stop offset="1" stop-color="#c822ff"/></linearGradient><rect width="14" height="2" x="28" y="23" fill="url(#ADwYbKNZ8OpYNfxgXJ4Qhc)"/><linearGradient id="ADwYbKNZ8OpYNfxgXJ4Qhd" x1="15" x2="15" y1="7.766" y2="52.362" gradientUnits="userSpaceOnUse"><stop offset="0" stop-color="#1a6dff"/><stop offset="1" stop-color="#c822ff"/></linearGradient><rect width="6" height="2" x="12" y="31" fill="url(#ADwYbKNZ8OpYNfxgXJ4Qhd)"/><linearGradient id="ADwYbKNZ8OpYNfxgXJ4Qhe" x1="15" x2="15" y1="7.766" y2="52.362" gradientUnits="userSpaceOnUse"><stop offset="0" stop-color="#1a6dff"/><stop offset="1" stop-color="#c822ff"/></linearGradient><rect width="6" height="2" x="12" y="35" fill="url(#ADwYbKNZ8OpYNfxgXJ4Qhe)"/><linearGradient id="ADwYbKNZ8OpYNfxgXJ4Qhf" x1="23" x2="23" y1="7.766" y2="52.362" gradientUnits="userSpaceOnUse"><stop offset="0" stop-color="#1a6dff"/><stop offset="1" stop-color="#c822ff"/></linearGradient><rect width="6" height="2" x="20" y="31" fill="url(#ADwYbKNZ8OpYNfxgXJ4Qhf)"/><linearGradient id="ADwYbKNZ8OpYNfxgXJ4Qhg" x1="23" x2="23" y1="7.766" y2="52.362" gradientUnits="userSpaceOnUse"><stop offset="0" stop-color="#1a6dff"/><stop offset="1" stop-color="#c822ff"/></linearGradient><rect width="6" height="2" x="20" y="35" fill="url(#ADwYbKNZ8OpYNfxgXJ4Qhg)"/><linearGradient id="ADwYbKNZ8OpYNfxgXJ4Qhh" x1="35" x2="35" y1="7.766" y2="52.362" gradientUnits="userSpaceOnUse"><stop offset="0" stop-color="#1a6dff"/><stop offset="1" stop-color="#c822ff"/></linearGradient><rect width="14" height="2" x="28" y="27" fill="url(#ADwYbKNZ8OpYNfxgXJ4Qhh)"/><linearGradient id="ADwYbKNZ8OpYNfxgXJ4Qhi" x1="35" x2="35" y1="7.766" y2="52.362" gradientUnits="userSpaceOnUse"><stop offset="0" stop-color="#1a6dff"/><stop offset="1" stop-color="#c822ff"/></linearGradient><rect width="14" height="2" x="28" y="31" fill="url(#ADwYbKNZ8OpYNfxgXJ4Qhi)"/><linearGradient id="ADwYbKNZ8OpYNfxgXJ4Qhj" x1="32" x2="32" y1="7.766" y2="52.362" gradientUnits="userSpaceOnUse"><stop offset="0" stop-color="#1a6dff"/><stop offset="1" stop-color="#c822ff"/></linearGradient><path fill="url(#ADwYbKNZ8OpYNfxgXJ4Qhj)" d="M48,33.051V12c0-1.654-1.346-3-3-3H9c-1.654,0-3,1.346-3,3v30c0,1.302,0.839,2.401,2,2.815 V46c0,1.654,1.346,3,3,3h26.214c1.824,3.556,5.521,6,9.786,6c6.065,0,11-4.935,11-11C58,38.272,53.598,33.558,48,33.051z M8,12 c0-0.552,0.448-1,1-1h36c0.552,0,1,0.448,1,1v5H8V12z M11,47c-0.552,0-1-0.448-1-1v-1h26.051c0.062,0.688,0.192,1.354,0.376,2H11z M36.05,43H9c-0.552,0-1-0.448-1-1V19h38v14.051c-1.962,0.178-3.775,0.874-5.305,1.949H28v2h10.521 C37.147,38.662,36.256,40.733,36.05,43z M47,53c-4.963,0-9-4.037-9-9s4.037-9,9-9s9,4.037,9,9S51.963,53,47,53z"/><linearGradient id="ADwYbKNZ8OpYNfxgXJ4Qhk" x1="48.5" x2="48.5" y1="7.766" y2="52.362" gradientUnits="userSpaceOnUse"><stop offset="0" stop-color="#1a6dff"/><stop offset="1" stop-color="#c822ff"/></linearGradient><path fill="url(#ADwYbKNZ8OpYNfxgXJ4Qhk)" d="M48,41.184V38h-2v3.184c-1.161,0.414-2,1.514-2,2.816c0,1.654,1.346,3,3,3 c1.302,0,2.402-0.839,2.816-2H53v-2h-3.184C49.514,42.153,48.847,41.486,48,41.184z M47,45c-0.552,0-1-0.448-1-1s0.448-1,1-1 s1,0.448,1,1S47.552,45,47,45z"/></svg>
