<svg xmlns="http://www.w3.org/2000/svg"  viewBox="0 0 64 64" width="64px" height="64px" fill-rule="evenodd" clip-rule="evenodd"><linearGradient id="pFcZsiZaUi~ieGcZDyvSta" x1="32" x2="32" y1="11.875" y2="38.753" gradientUnits="userSpaceOnUse" spreadMethod="reflect"><stop offset="0" stop-color="#6dc7ff"/><stop offset="1" stop-color="#e6abff"/></linearGradient><path fill="url(#pFcZsiZaUi~ieGcZDyvSta)" fill-rule="evenodd" d="M27 12H37V22H27z" clip-rule="evenodd"/><linearGradient id="pFcZsiZaUi~ieGcZDyvStb" x1="48" x2="48" y1="11.375" y2="38.253" gradientUnits="userSpaceOnUse" spreadMethod="reflect"><stop offset="0" stop-color="#6dc7ff"/><stop offset="1" stop-color="#e6abff"/></linearGradient><path fill="url(#pFcZsiZaUi~ieGcZDyvStb)" fill-rule="evenodd" d="M43 28H53V38H43z" clip-rule="evenodd"/><linearGradient id="pFcZsiZaUi~ieGcZDyvStc" x1="48" x2="48" y1="11.875" y2="38.753" gradientUnits="userSpaceOnUse" spreadMethod="reflect"><stop offset="0" stop-color="#6dc7ff"/><stop offset="1" stop-color="#e6abff"/></linearGradient><path fill="url(#pFcZsiZaUi~ieGcZDyvStc)" fill-rule="evenodd" d="M43 12H53V22H43z" clip-rule="evenodd"/><linearGradient id="pFcZsiZaUi~ieGcZDyvStd" x1="16" x2="16" y1="9.75" y2="56.261" gradientUnits="userSpaceOnUse" spreadMethod="reflect"><stop offset="0" stop-color="#1a6dff"/><stop offset="1" stop-color="#c822ff"/></linearGradient><path fill="url(#pFcZsiZaUi~ieGcZDyvStd)" d="M20,24h-8c-1.654,0-3-1.346-3-3v-8c0-1.654,1.346-3,3-3h8c1.654,0,3,1.346,3,3v8 C23,22.654,21.654,24,20,24z M12,12c-0.552,0-1,0.449-1,1v8c0,0.551,0.448,1,1,1h8c0.552,0,1-0.449,1-1v-8c0-0.551-0.448-1-1-1H12z"/><linearGradient id="pFcZsiZaUi~ieGcZDyvSte" x1="16" x2="16" y1="9.75" y2="56.261" gradientUnits="userSpaceOnUse" spreadMethod="reflect"><stop offset="0" stop-color="#1a6dff"/><stop offset="1" stop-color="#c822ff"/></linearGradient><path fill="url(#pFcZsiZaUi~ieGcZDyvSte)" d="M20,40h-8c-1.654,0-3-1.346-3-3v-8c0-1.654,1.346-3,3-3h8c1.654,0,3,1.346,3,3v8 C23,38.654,21.654,40,20,40z M12,28c-0.552,0-1,0.449-1,1v8c0,0.551,0.448,1,1,1h8c0.552,0,1-0.449,1-1v-8c0-0.551-0.448-1-1-1H12z"/><linearGradient id="pFcZsiZaUi~ieGcZDyvStf" x1="32" x2="32" y1="9.75" y2="56.261" gradientUnits="userSpaceOnUse" spreadMethod="reflect"><stop offset="0" stop-color="#1a6dff"/><stop offset="1" stop-color="#c822ff"/></linearGradient><path fill="url(#pFcZsiZaUi~ieGcZDyvStf)" d="M36,40h-8c-1.654,0-3-1.346-3-3v-8c0-1.654,1.346-3,3-3h8c1.654,0,3,1.346,3,3v8 C39,38.654,37.654,40,36,40z M28,28c-0.552,0-1,0.449-1,1v8c0,0.551,0.448,1,1,1h8c0.552,0,1-0.449,1-1v-8c0-0.551-0.448-1-1-1H28z"/><g><linearGradient id="pFcZsiZaUi~ieGcZDyvStg" x1="16" x2="16" y1="9.75" y2="56.261" gradientUnits="userSpaceOnUse" spreadMethod="reflect"><stop offset="0" stop-color="#1a6dff"/><stop offset="1" stop-color="#c822ff"/></linearGradient><path fill="url(#pFcZsiZaUi~ieGcZDyvStg)" d="M20,56h-8c-1.654,0-3-1.346-3-3v-8c0-1.654,1.346-3,3-3h8c1.654,0,3,1.346,3,3v8 C23,54.654,21.654,56,20,56z M12,44c-0.552,0-1,0.449-1,1v8c0,0.551,0.448,1,1,1h8c0.552,0,1-0.449,1-1v-8c0-0.551-0.448-1-1-1H12z"/></g><g><linearGradient id="pFcZsiZaUi~ieGcZDyvSth" x1="32" x2="32" y1="9.75" y2="56.261" gradientUnits="userSpaceOnUse" spreadMethod="reflect"><stop offset="0" stop-color="#1a6dff"/><stop offset="1" stop-color="#c822ff"/></linearGradient><path fill="url(#pFcZsiZaUi~ieGcZDyvSth)" d="M36,56h-8c-1.654,0-3-1.346-3-3v-8c0-1.654,1.346-3,3-3h8c1.654,0,3,1.346,3,3v8 C39,54.654,37.654,56,36,56z M28,44c-0.552,0-1,0.449-1,1v8c0,0.551,0.448,1,1,1h8c0.552,0,1-0.449,1-1v-8c0-0.551-0.448-1-1-1H28z"/></g><g><linearGradient id="pFcZsiZaUi~ieGcZDyvSti" x1="48" x2="48" y1="9.75" y2="56.261" gradientUnits="userSpaceOnUse" spreadMethod="reflect"><stop offset="0" stop-color="#1a6dff"/><stop offset="1" stop-color="#c822ff"/></linearGradient><path fill="url(#pFcZsiZaUi~ieGcZDyvSti)" d="M52,56h-8c-1.654,0-3-1.346-3-3v-8c0-1.654,1.346-3,3-3h8c1.654,0,3,1.346,3,3v8 C55,54.654,53.654,56,52,56z M44,44c-0.552,0-1,0.449-1,1v8c0,0.551,0.448,1,1,1h8c0.552,0,1-0.449,1-1v-8c0-0.551-0.448-1-1-1H44z"/></g></svg>
