<svg xmlns="http://www.w3.org/2000/svg"  viewBox="0 0 64 64" width="64px" height="64px"><linearGradient id="WL3ivPVdil2nys2Hxscj~a" x1="21" x2="21" y1="16.532" y2="37.815" gradientUnits="userSpaceOnUse"><stop offset="0" stop-color="#6dc7ff"/><stop offset="1" stop-color="#e6abff"/></linearGradient><rect width="6" height="24" x="18" y="16" fill="url(#WL3ivPVdil2nys2Hxscj~a)"/><linearGradient id="WL3ivPVdil2nys2Hxscj~b" x1="26" x2="26" y1="47.596" y2="55.093" gradientUnits="userSpaceOnUse"><stop offset="0" stop-color="#6dc7ff"/><stop offset="1" stop-color="#e6abff"/></linearGradient><path fill="url(#WL3ivPVdil2nys2Hxscj~b)" d="M29,56l-3-1l-3,1v-9h6V56z"/><linearGradient id="WL3ivPVdil2nys2Hxscj~c" x1="32" x2="32" y1="6.574" y2="54.699" gradientUnits="userSpaceOnUse"><stop offset="0" stop-color="#1a6dff"/><stop offset="1" stop-color="#c822ff"/></linearGradient><path fill="url(#WL3ivPVdil2nys2Hxscj~c)" d="M46,9H31V8c0-1.102-0.898-2-2-2h-6c-1.102,0-2,0.898-2,2v1h-3c-2.758,0-5,2.242-5,5v36.004 C13,52.758,15.242,55,18,55h3v0.992c0,0.766,0.426,1.453,1.109,1.793C22.395,57.93,22.699,58,23.008,58 c0.422,0,0.844-0.137,1.199-0.402L26,56.254l1.793,1.344c0.609,0.457,1.414,0.531,2.098,0.188C30.574,57.445,31,56.758,31,55.992 V55h15c2.758,0,5-2.242,5-4.996V14C51,11.242,48.758,9,46,9z M23,8h6v1h-6V8z M21,49h-2v-2h2V49z M28.992,55.996l-1.793-1.344 c-0.707-0.531-1.691-0.531-2.398,0L23,55.992V47h6L28.992,55.996z M49,50.004C49,51.656,47.656,53,46,53H31v-2h14 c1.102,0,2-0.895,2-1.996v-2C47,45.898,46.102,45,45,45H19c-1.102,0-2,0.898-2,2.004v2C17,50.105,17.898,51,19,51h2v2h-3 c-1.652,0-3-1.344-3-2.996V14c0-1.652,1.344-3,3-3h28c1.652,0,3,1.348,3,3V50.004z M31,49v-2h14v2H31z"/><linearGradient id="WL3ivPVdil2nys2Hxscj~d" x1="21" x2="21" y1="6.574" y2="54.699" gradientUnits="userSpaceOnUse"><stop offset="0" stop-color="#1a6dff"/><stop offset="1" stop-color="#c822ff"/></linearGradient><path fill="url(#WL3ivPVdil2nys2Hxscj~d)" d="M24,15h-6c-0.553,0-1,0.448-1,1v24c0,0.552,0.447,1,1,1h6c0.553,0,1-0.448,1-1V16 C25,15.448,24.553,15,24,15z M23,39h-4v-4h4V39z M23,33h-4v-4h4V33z M23,27h-4v-4h4V27z M23,21h-4v-4h4V21z"/><linearGradient id="WL3ivPVdil2nys2Hxscj~e" x1="33.5" x2="33.5" y1="6.574" y2="54.699" gradientUnits="userSpaceOnUse"><stop offset="0" stop-color="#1a6dff"/><stop offset="1" stop-color="#c822ff"/></linearGradient><rect width="13" height="2" x="27" y="19" fill="url(#WL3ivPVdil2nys2Hxscj~e)"/><linearGradient id="WL3ivPVdil2nys2Hxscj~f" x1="37" x2="37" y1="6.574" y2="54.699" gradientUnits="userSpaceOnUse"><stop offset="0" stop-color="#1a6dff"/><stop offset="1" stop-color="#c822ff"/></linearGradient><rect width="20" height="2" x="27" y="23" fill="url(#WL3ivPVdil2nys2Hxscj~f)"/><linearGradient id="WL3ivPVdil2nys2Hxscj~g" x1="33.5" x2="33.5" y1="6.574" y2="54.699" gradientUnits="userSpaceOnUse"><stop offset="0" stop-color="#1a6dff"/><stop offset="1" stop-color="#c822ff"/></linearGradient><rect width="13" height="2" x="27" y="27" fill="url(#WL3ivPVdil2nys2Hxscj~g)"/><linearGradient id="WL3ivPVdil2nys2Hxscj~h" x1="37" x2="37" y1="6.574" y2="54.699" gradientUnits="userSpaceOnUse"><stop offset="0" stop-color="#1a6dff"/><stop offset="1" stop-color="#c822ff"/></linearGradient><rect width="20" height="2" x="27" y="31" fill="url(#WL3ivPVdil2nys2Hxscj~h)"/><linearGradient id="WL3ivPVdil2nys2Hxscj~i" x1="33.5" x2="33.5" y1="6.574" y2="54.699" gradientUnits="userSpaceOnUse"><stop offset="0" stop-color="#1a6dff"/><stop offset="1" stop-color="#c822ff"/></linearGradient><rect width="13" height="2" x="27" y="35" fill="url(#WL3ivPVdil2nys2Hxscj~i)"/></svg>
