<svg xmlns="http://www.w3.org/2000/svg"  viewBox="0 0 64 64" width="64px" height="64px"><linearGradient id="lb6tjpbP2lkvYAXjsYxtya" x1="14" x2="14" y1="19" y2="38.581" gradientUnits="userSpaceOnUse"><stop offset="0" stop-color="#6dc7ff"/><stop offset="1" stop-color="#e6abff"/></linearGradient><rect width="2" height="2" x="13" y="19" fill="url(#lb6tjpbP2lkvYAXjsYxtya)"/><linearGradient id="lb6tjpbP2lkvYAXjsYxtyb" x1="14" x2="14" y1="19" y2="38.581" gradientUnits="userSpaceOnUse"><stop offset="0" stop-color="#6dc7ff"/><stop offset="1" stop-color="#e6abff"/></linearGradient><rect width="2" height="2" x="13" y="24" fill="url(#lb6tjpbP2lkvYAXjsYxtyb)"/><linearGradient id="lb6tjpbP2lkvYAXjsYxtyc" x1="14" x2="14" y1="19" y2="38.581" gradientUnits="userSpaceOnUse"><stop offset="0" stop-color="#6dc7ff"/><stop offset="1" stop-color="#e6abff"/></linearGradient><rect width="2" height="2" x="13" y="29" fill="url(#lb6tjpbP2lkvYAXjsYxtyc)"/><linearGradient id="lb6tjpbP2lkvYAXjsYxtyd" x1="14" x2="14" y1="19" y2="38.581" gradientUnits="userSpaceOnUse"><stop offset="0" stop-color="#6dc7ff"/><stop offset="1" stop-color="#e6abff"/></linearGradient><rect width="2" height="2" x="13" y="39" fill="url(#lb6tjpbP2lkvYAXjsYxtyd)"/><linearGradient id="lb6tjpbP2lkvYAXjsYxtye" x1="14" x2="14" y1="19" y2="38.581" gradientUnits="userSpaceOnUse"><stop offset="0" stop-color="#6dc7ff"/><stop offset="1" stop-color="#e6abff"/></linearGradient><rect width="2" height="2" x="13" y="34" fill="url(#lb6tjpbP2lkvYAXjsYxtye)"/><g><linearGradient id="lb6tjpbP2lkvYAXjsYxtyf" x1="32" x2="32" y1="5.979" y2="59.005" gradientUnits="userSpaceOnUse"><stop offset="0" stop-color="#1a6dff"/><stop offset="1" stop-color="#c822ff"/></linearGradient><rect width="8" height="2" x="28" y="19" fill="url(#lb6tjpbP2lkvYAXjsYxtyf)"/><linearGradient id="lb6tjpbP2lkvYAXjsYxtyg" x1="21.5" x2="21.5" y1="5.979" y2="59.005" gradientUnits="userSpaceOnUse"><stop offset="0" stop-color="#1a6dff"/><stop offset="1" stop-color="#c822ff"/></linearGradient><rect width="9" height="2" x="17" y="19" fill="url(#lb6tjpbP2lkvYAXjsYxtyg)"/><linearGradient id="lb6tjpbP2lkvYAXjsYxtyh" x1="20" x2="20" y1="5.979" y2="59.005" gradientUnits="userSpaceOnUse"><stop offset="0" stop-color="#1a6dff"/><stop offset="1" stop-color="#c822ff"/></linearGradient><rect width="6" height="2" x="17" y="24" fill="url(#lb6tjpbP2lkvYAXjsYxtyh)"/><linearGradient id="lb6tjpbP2lkvYAXjsYxtyi" x1="28" x2="28" y1="5.979" y2="59.005" gradientUnits="userSpaceOnUse"><stop offset="0" stop-color="#1a6dff"/><stop offset="1" stop-color="#c822ff"/></linearGradient><rect width="6" height="2" x="25" y="24" fill="url(#lb6tjpbP2lkvYAXjsYxtyi)"/><linearGradient id="lb6tjpbP2lkvYAXjsYxtyj" x1="20" x2="20" y1="5.979" y2="59.005" gradientUnits="userSpaceOnUse"><stop offset="0" stop-color="#1a6dff"/><stop offset="1" stop-color="#c822ff"/></linearGradient><rect width="6" height="2" x="17" y="29" fill="url(#lb6tjpbP2lkvYAXjsYxtyj)"/><linearGradient id="lb6tjpbP2lkvYAXjsYxtyk" x1="28" x2="28" y1="5.979" y2="59.005" gradientUnits="userSpaceOnUse"><stop offset="0" stop-color="#1a6dff"/><stop offset="1" stop-color="#c822ff"/></linearGradient><rect width="6" height="2" x="25" y="29" fill="url(#lb6tjpbP2lkvYAXjsYxtyk)"/><linearGradient id="lb6tjpbP2lkvYAXjsYxtyl" x1="20" x2="20" y1="5.979" y2="59.005" gradientUnits="userSpaceOnUse"><stop offset="0" stop-color="#1a6dff"/><stop offset="1" stop-color="#c822ff"/></linearGradient><rect width="6" height="2" x="17" y="39" fill="url(#lb6tjpbP2lkvYAXjsYxtyl)"/><linearGradient id="lb6tjpbP2lkvYAXjsYxtym" x1="32" x2="32" y1="5.979" y2="59.005" gradientUnits="userSpaceOnUse"><stop offset="0" stop-color="#1a6dff"/><stop offset="1" stop-color="#c822ff"/></linearGradient><rect width="8" height="2" x="28" y="34" fill="url(#lb6tjpbP2lkvYAXjsYxtym)"/><linearGradient id="lb6tjpbP2lkvYAXjsYxtyn" x1="21.5" x2="21.5" y1="5.979" y2="59.005" gradientUnits="userSpaceOnUse"><stop offset="0" stop-color="#1a6dff"/><stop offset="1" stop-color="#c822ff"/></linearGradient><rect width="9" height="2" x="17" y="34" fill="url(#lb6tjpbP2lkvYAXjsYxtyn)"/><linearGradient id="lb6tjpbP2lkvYAXjsYxtyo" x1="32" x2="32" y1="6" y2="59.026" gradientUnits="userSpaceOnUse"><stop offset="0" stop-color="#1a6dff"/><stop offset="1" stop-color="#c822ff"/></linearGradient><path fill="url(#lb6tjpbP2lkvYAXjsYxtyo)" d="M48,38h-1v-7h4c0.553,0,1-0.448,1-1v-2.5c0-1.93-1.57-3.5-3.5-3.5 c-0.114,0-0.222,0.023-0.333,0.034C48.11,24.024,48.059,24,48,24h-7V11c0-2.757-2.243-5-5-5h-8H11c-2.757,0-5,2.243-5,5 c0,2.045,1.237,3.802,3,4.576V42c0,2.757,2.243,5,5,5h20.051C34.018,47.329,34,47.662,34,48c0,5.514,4.486,10,10,10h4 c5.514,0,10-4.486,10-10S53.514,38,48,38z M50,27.5V29h-3v-1.5c0-0.827,0.673-1.5,1.5-1.5S50,26.673,50,27.5z M45.351,26 C45.133,26.456,45,26.961,45,27.5V38h-1c-1.045,0-2.052,0.163-3,0.461V26H45.351z M8,11c0-1.654,1.346-3,3-3h17h4.002 C31.373,8.836,31,9.875,31,11s0.373,2.164,1.002,3H11C9.346,14,8,12.654,8,11z M14,45c-1.654,0-3-1.346-3-3V16h25v-2 c-1.654,0-3-1.346-3-3s1.346-3,3-3s3,1.346,3,3v28.353C36.861,40.595,35.218,42.6,34.461,45H14z M48,56h-4c-4.411,0-8-3.589-8-8 s3.589-8,8-8h4c4.411,0,8,3.589,8,8S52.411,56,48,56z"/><linearGradient id="lb6tjpbP2lkvYAXjsYxtyp" x1="50" x2="50" y1="5.979" y2="59.005" gradientUnits="userSpaceOnUse"><stop offset="0" stop-color="#1a6dff"/><stop offset="1" stop-color="#c822ff"/></linearGradient><path fill="url(#lb6tjpbP2lkvYAXjsYxtyp)" d="M51,46c0-1.654-1.346-3-3-3h-1v2h1c0.552,0,1,0.448,1,1c0,0.768,0.29,1.469,0.766,2 C49.29,48.531,49,49.232,49,50c0,0.552-0.448,1-1,1h-1v2h1c1.654,0,3-1.346,3-3c0-0.552,0.448-1,1-1h1v-2h-1 C51.448,47,51,46.552,51,46z"/><linearGradient id="lb6tjpbP2lkvYAXjsYxtyq" x1="42" x2="42" y1="5.979" y2="59.005" gradientUnits="userSpaceOnUse"><stop offset="0" stop-color="#1a6dff"/><stop offset="1" stop-color="#c822ff"/></linearGradient><path fill="url(#lb6tjpbP2lkvYAXjsYxtyq)" d="M41,46c0,0.552-0.448,1-1,1h-1v2h1c0.552,0,1,0.448,1,1c0,1.654,1.346,3,3,3h1v-2h-1 c-0.552,0-1-0.448-1-1c0-0.768-0.29-1.469-0.766-2C42.71,47.469,43,46.768,43,46c0-0.552,0.448-1,1-1h1v-2h-1 C42.346,43,41,44.346,41,46z"/></g></svg>