<svg xmlns="http://www.w3.org/2000/svg"  viewBox="0 0 64 64" width="64px" height="64px"><linearGradient id="vZIGDc~CjZ17ryhuAGA3Ha" x1="32" x2="32" y1="4" y2="58.503" gradientUnits="userSpaceOnUse" spreadMethod="reflect"><stop offset="0" stop-color="#1a6dff"/><stop offset="1" stop-color="#c822ff"/></linearGradient><path fill="url(#vZIGDc~CjZ17ryhuAGA3Ha)" d="M51,6H13c-1.654,0-3,1.346-3,3v32c0,1.302,0.839,2.401,2,2.815V45c0,1.654,1.346,3,3,3h11v-2 H15c-0.552,0-1-0.448-1-1v-1h12v-0.02c1.423,1.073,3.133,1.783,5,1.969V48h-3v7c0,1.654,1.346,3,3,3h2c1.654,0,3-1.346,3-3v-7h-3 v-2.051c1.867-0.186,3.577-0.896,5-1.969V44h12v1c0,0.552-0.448,1-1,1H38v2h11c1.654,0,3-1.346,3-3v-1.184 c1.161-0.415,2-1.514,2-2.816V9C54,7.346,52.654,6,51,6z M33,56h-2c-0.552,0-1-0.448-1-1v-1h4v1C34,55.552,33.552,56,33,56z M34,52 h-4v-2h4V52z M13,8h38c0.552,0,1,0.448,1,1v5H12V9C12,8.448,12.448,8,13,8z M32,44c-4.411,0-8-3.589-8-8s3.589-8,8-8s8,3.589,8,8 S36.411,44,32,44z M51,42H39.981C41.242,40.326,42,38.252,42,36c0-5.514-4.486-10-10-10s-10,4.486-10,10 c0,2.252,0.758,4.326,2.019,6H13c-0.552,0-1-0.448-1-1V16h40v25C52,41.552,51.552,42,51,42z"/><linearGradient id="vZIGDc~CjZ17ryhuAGA3Hb" x1="19" x2="19" y1="4" y2="58.503" gradientUnits="userSpaceOnUse" spreadMethod="reflect"><stop offset="0" stop-color="#1a6dff"/><stop offset="1" stop-color="#c822ff"/></linearGradient><path fill="url(#vZIGDc~CjZ17ryhuAGA3Hb)" d="M14 10H24V12H14z"/><linearGradient id="vZIGDc~CjZ17ryhuAGA3Hc" x1="24" x2="24" y1="4" y2="58.503" gradientUnits="userSpaceOnUse" spreadMethod="reflect"><stop offset="0" stop-color="#1a6dff"/><stop offset="1" stop-color="#c822ff"/></linearGradient><path fill="url(#vZIGDc~CjZ17ryhuAGA3Hc)" d="M17 20H31V22H17z"/><linearGradient id="vZIGDc~CjZ17ryhuAGA3Hd" x1="22" x2="22" y1="4" y2="58.503" gradientUnits="userSpaceOnUse" spreadMethod="reflect"><stop offset="0" stop-color="#1a6dff"/><stop offset="1" stop-color="#c822ff"/></linearGradient><path fill="url(#vZIGDc~CjZ17ryhuAGA3Hd)" d="M17 24H27V26H17z"/><linearGradient id="vZIGDc~CjZ17ryhuAGA3He" x1="43" x2="43" y1="4" y2="58.503" gradientUnits="userSpaceOnUse" spreadMethod="reflect"><stop offset="0" stop-color="#1a6dff"/><stop offset="1" stop-color="#c822ff"/></linearGradient><path fill="url(#vZIGDc~CjZ17ryhuAGA3He)" d="M39 24H47V26H39z"/><linearGradient id="vZIGDc~CjZ17ryhuAGA3Hf" x1="19.5" x2="19.5" y1="4" y2="58.503" gradientUnits="userSpaceOnUse" spreadMethod="reflect"><stop offset="0" stop-color="#1a6dff"/><stop offset="1" stop-color="#c822ff"/></linearGradient><path fill="url(#vZIGDc~CjZ17ryhuAGA3Hf)" d="M17 28H22V30H17z"/><linearGradient id="vZIGDc~CjZ17ryhuAGA3Hg" x1="44.5" x2="44.5" y1="4" y2="58.503" gradientUnits="userSpaceOnUse" spreadMethod="reflect"><stop offset="0" stop-color="#1a6dff"/><stop offset="1" stop-color="#c822ff"/></linearGradient><path fill="url(#vZIGDc~CjZ17ryhuAGA3Hg)" d="M42 28H47V30H42z"/><linearGradient id="vZIGDc~CjZ17ryhuAGA3Hh" x1="40" x2="40" y1="4" y2="58.503" gradientUnits="userSpaceOnUse" spreadMethod="reflect"><stop offset="0" stop-color="#1a6dff"/><stop offset="1" stop-color="#c822ff"/></linearGradient><path fill="url(#vZIGDc~CjZ17ryhuAGA3Hh)" d="M33 20H47V22H33z"/><linearGradient id="vZIGDc~CjZ17ryhuAGA3Hi" x1="19" x2="19" y1="4" y2="58.503" gradientUnits="userSpaceOnUse" spreadMethod="reflect"><stop offset="0" stop-color="#1a6dff"/><stop offset="1" stop-color="#c822ff"/></linearGradient><path fill="url(#vZIGDc~CjZ17ryhuAGA3Hi)" d="M17 32H21V34H17z"/><linearGradient id="vZIGDc~CjZ17ryhuAGA3Hj" x1="45" x2="45" y1="4" y2="58.503" gradientUnits="userSpaceOnUse" spreadMethod="reflect"><stop offset="0" stop-color="#1a6dff"/><stop offset="1" stop-color="#c822ff"/></linearGradient><path fill="url(#vZIGDc~CjZ17ryhuAGA3Hj)" d="M43 32H47V34H43z"/><linearGradient id="vZIGDc~CjZ17ryhuAGA3Hk" x1="32" x2="32" y1="31.625" y2="40.501" gradientUnits="userSpaceOnUse" spreadMethod="reflect"><stop offset="0" stop-color="#6dc7ff"/><stop offset="1" stop-color="#e6abff"/></linearGradient><path fill="url(#vZIGDc~CjZ17ryhuAGA3Hk)" d="M32 32A4 4 0 1 0 32 40A4 4 0 1 0 32 32Z"/></svg>
