<svg xmlns="http://www.w3.org/2000/svg"  viewBox="0 0 64 64" width="64px" height="64px"><linearGradient id="D_gOTn4gUz~FHwlfsZagCa" x1="43" x2="43" y1="38.417" y2="47.5" gradientUnits="userSpaceOnUse" spreadMethod="reflect"><stop offset="0" stop-color="#6dc7ff"/><stop offset="1" stop-color="#e6abff"/></linearGradient><path fill="url(#D_gOTn4gUz~FHwlfsZagCa)" d="M47,43c0,2.21-1.79,4-4,4s-4-1.79-4-4c0-2.21,1.79-4,4-4c0.06,0,0.12,0,0.18,0.01 C43.06,39.32,43,39.65,43,40c0,1.66,1.34,3,3,3c0.35,0,0.68-0.06,0.99-0.18C47,42.88,47,42.94,47,43z"/><linearGradient id="D_gOTn4gUz~FHwlfsZagCb" x1="32" x2="32" y1="9.333" y2="54.353" gradientUnits="userSpaceOnUse" spreadMethod="reflect"><stop offset="0" stop-color="#1a6dff"/><stop offset="1" stop-color="#c822ff"/></linearGradient><path fill="url(#D_gOTn4gUz~FHwlfsZagCb)" d="M48,32.634V13c0-1.654-1.346-3-3-3H9c-1.654,0-3,1.346-3,3v32c0,1.654,1.346,3,3,3h20.909 c2.226,3.083,6.466,6,13.091,6c10.471,0,15-7.284,15-11C58,39.942,54.923,34.476,48,32.634z M9,12h36c0.552,0,1,0.448,1,1v5H8v-5 C8,12.448,8.448,12,9,12z M9,46c-0.552,0-1-0.448-1-1V20h38v12.232c-0.639-0.094-1.306-0.156-2-0.188V22H10v22h18.106 c0.112,0.622,0.325,1.297,0.642,2H9z M29.909,38H24v-2h7.699C31,36.639,30.404,37.314,29.909,38z M34.534,34H22v6h6.748 c-0.317,0.703-0.53,1.378-0.642,2H12V24h30v8.044C39.005,32.183,36.525,32.922,34.534,34z M43,52c-9.26,0-13-6.352-13-9s3.74-9,13-9 s13,6.352,13,9S52.26,52,43,52z"/><linearGradient id="D_gOTn4gUz~FHwlfsZagCc" x1="13" x2="13" y1="9.333" y2="54.353" gradientUnits="userSpaceOnUse" spreadMethod="reflect"><stop offset="0" stop-color="#1a6dff"/><stop offset="1" stop-color="#c822ff"/></linearGradient><path fill="url(#D_gOTn4gUz~FHwlfsZagCc)" d="M10 14H16V16H10z"/><linearGradient id="D_gOTn4gUz~FHwlfsZagCd" x1="20" x2="20" y1="9.333" y2="54.353" gradientUnits="userSpaceOnUse" spreadMethod="reflect"><stop offset="0" stop-color="#1a6dff"/><stop offset="1" stop-color="#c822ff"/></linearGradient><path fill="url(#D_gOTn4gUz~FHwlfsZagCd)" d="M18 14H22V16H18z"/><linearGradient id="D_gOTn4gUz~FHwlfsZagCe" x1="17" x2="17" y1="9.333" y2="54.353" gradientUnits="userSpaceOnUse" spreadMethod="reflect"><stop offset="0" stop-color="#1a6dff"/><stop offset="1" stop-color="#c822ff"/></linearGradient><path fill="url(#D_gOTn4gUz~FHwlfsZagCe)" d="M14,32h6v-6h-6V32z M16,28h2v2h-2V28z"/><linearGradient id="D_gOTn4gUz~FHwlfsZagCf" x1="31" x2="31" y1="9.333" y2="54.353" gradientUnits="userSpaceOnUse" spreadMethod="reflect"><stop offset="0" stop-color="#1a6dff"/><stop offset="1" stop-color="#c822ff"/></linearGradient><path fill="url(#D_gOTn4gUz~FHwlfsZagCf)" d="M22,26v6h18v-6H22z M38,30H24v-2h14V30z"/><linearGradient id="D_gOTn4gUz~FHwlfsZagCg" x1="17" x2="17" y1="9.333" y2="54.353" gradientUnits="userSpaceOnUse" spreadMethod="reflect"><stop offset="0" stop-color="#1a6dff"/><stop offset="1" stop-color="#c822ff"/></linearGradient><path fill="url(#D_gOTn4gUz~FHwlfsZagCg)" d="M14,40h6v-6h-6V40z M16,36h2v2h-2V36z"/></svg>