<svg xmlns="http://www.w3.org/2000/svg"  viewBox="0 0 64 64" width="64px" height="64px"><linearGradient id="sJFjgAfj1GoW5HAyArSQja" x1="17" x2="17" y1="47.66" y2="51.43" gradientUnits="userSpaceOnUse"><stop offset="0" stop-color="#6dc7ff"/><stop offset="1" stop-color="#e6abff"/></linearGradient><path fill="url(#sJFjgAfj1GoW5HAyArSQja)" d="M23.184,52H10.816C10.366,52,10,51.634,10,51.184v-2.367C10,48.366,10.366,48,10.816,48	h12.367C23.634,48,24,48.366,24,48.816v2.367C24,51.634,23.634,52,23.184,52z"/><linearGradient id="sJFjgAfj1GoW5HAyArSQjb" x1="32" x2="32" y1="7.17" y2="56.401" gradientUnits="userSpaceOnUse"><stop offset="0" stop-color="#1a6dff"/><stop offset="1" stop-color="#c822ff"/></linearGradient><path fill="url(#sJFjgAfj1GoW5HAyArSQjb)" d="M57.979,45.441l-7.327-34.48C50.163,8.666,48.106,7,45.761,7H38c-1.654,0-3,1.346-3,3v13 h2.919l-5.139,6.423c-0.381,0.479-1.18,0.479-1.561,0L26.081,23H29V10c0-1.654-1.346-3-3-3h-7.762 c-2.346,0-4.402,1.665-4.892,3.959L6.033,45.306C6.005,45.441,6,54,6,54c0,1.654,1.346,3,3,3h46c1.654,0,3-1.346,3-3 C58,54,58.006,45.571,57.979,45.441z M15.304,11.375C15.597,9.999,16.831,9,18.238,9H26c0.552,0,1,0.448,1,1v11h-0.919 c-0.775,0-1.466,0.435-1.803,1.133c-0.336,0.699-0.244,1.51,0.24,2.117l5.139,6.423c0.573,0.715,1.427,1.126,2.343,1.126 s1.77-0.411,2.343-1.126l5.139-6.424c0.484-0.606,0.576-1.417,0.24-2.116C39.385,21.435,38.694,21,37.919,21H37V10 c0-0.552,0.448-1,1-1h7.761c1.407,0,2.642,1,2.934,2.377l6.729,31.666C55.284,43.023,55.145,43,55,43H9 c-0.151,0-0.295,0.023-0.44,0.044L9.209,40H25v-2H9.634l0.426-2H22v-2H10.486L11,31.587V32h8v-2h-7.662L15.304,11.375z M56,54 c0,0.552-0.448,1-1,1H9c-0.552,0-1-0.448-1-1v-8c0-0.552,0.448-1,1-1h46c0.552,0,1,0.448,1,1V54z"/><linearGradient id="sJFjgAfj1GoW5HAyArSQjc" x1="51" x2="51" y1="7.17" y2="56.401" gradientUnits="userSpaceOnUse"><stop offset="0" stop-color="#1a6dff"/><stop offset="1" stop-color="#c822ff"/></linearGradient><path fill="url(#sJFjgAfj1GoW5HAyArSQjc)" d="M51,47c-1.654,0-3,1.346-3,3s1.346,3,3,3s3-1.346,3-3S52.654,47,51,47z M51,51 c-0.552,0-1-0.448-1-1s0.448-1,1-1s1,0.448,1,1S51.552,51,51,51z"/><linearGradient id="sJFjgAfj1GoW5HAyArSQjd" x1="43" x2="43" y1="7.17" y2="56.401" gradientUnits="userSpaceOnUse"><stop offset="0" stop-color="#1a6dff"/><stop offset="1" stop-color="#c822ff"/></linearGradient><path fill="url(#sJFjgAfj1GoW5HAyArSQjd)" d="M43,47c-1.654,0-3,1.346-3,3s1.346,3,3,3s3-1.346,3-3S44.654,47,43,47z M43,51 c-0.552,0-1-0.448-1-1s0.448-1,1-1s1,0.448,1,1S43.552,51,43,51z"/><linearGradient id="sJFjgAfj1GoW5HAyArSQje" x1="35" x2="35" y1="7.17" y2="56.401" gradientUnits="userSpaceOnUse"><stop offset="0" stop-color="#1a6dff"/><stop offset="1" stop-color="#c822ff"/></linearGradient><path fill="url(#sJFjgAfj1GoW5HAyArSQje)" d="M35,47c-1.654,0-3,1.346-3,3s1.346,3,3,3s3-1.346,3-3S36.654,47,35,47z M35,51 c-0.552,0-1-0.448-1-1s0.448-1,1-1s1,0.448,1,1S35.552,51,35,51z"/></svg>