<svg xmlns="http://www.w3.org/2000/svg"  viewBox="0 0 64 64" width="64px" height="64px"><linearGradient id="TlPj9T0U4bMDzbdT5ffZda" x1="31.948" x2="31.948" y1="7.34" y2="17.639" gradientUnits="userSpaceOnUse"><stop offset="0" stop-color="#6dc7ff"/><stop offset="1" stop-color="#e6abff"/></linearGradient><path fill="url(#TlPj9T0U4bMDzbdT5ffZda)" d="M27.444,18.428C28.738,17.53,30.306,17,32,17s3.262,0.53,4.556,1.428l3.116-8.012	C40.311,8.772,39.098,7,37.335,7H26.333c-1.604,0-2.706,1.612-2.125,3.106L27.444,18.428z"/><linearGradient id="TlPj9T0U4bMDzbdT5ffZdb" x1="32" x2="32" y1="30.553" y2="32.788" gradientUnits="userSpaceOnUse"><stop offset="0" stop-color="#6dc7ff"/><stop offset="1" stop-color="#e6abff"/></linearGradient><path fill="url(#TlPj9T0U4bMDzbdT5ffZdb)" d="M38.114,34H25.886C24.844,34,24,33.156,24,32.114v-0.229C24,30.844,24.844,30,25.886,30	h12.229C39.156,30,40,30.844,40,31.886v0.229C40,33.156,39.156,34,38.114,34z"/><linearGradient id="TlPj9T0U4bMDzbdT5ffZdc" x1="32" x2="32" y1="7" y2="57.157" gradientUnits="userSpaceOnUse"><stop offset="0" stop-color="#1a6dff"/><stop offset="1" stop-color="#c822ff"/></linearGradient><path fill="url(#TlPj9T0U4bMDzbdT5ffZdc)" d="M38.114,29H25.886C24.295,29,23,30.295,23,31.886v0.229C23,33.705,24.295,35,25.886,35 h12.229C39.705,35,41,33.705,41,32.114v-0.229C41,30.295,39.705,29,38.114,29z M39,32.114C39,32.603,38.603,33,38.114,33H25.886 C25.397,33,25,32.603,25,32.114v-0.229C25,31.397,25.397,31,25.886,31h12.229C38.603,31,39,31.397,39,31.886V32.114z"/><linearGradient id="TlPj9T0U4bMDzbdT5ffZdd" x1="32" x2="32" y1="7" y2="57.157" gradientUnits="userSpaceOnUse"><stop offset="0" stop-color="#1a6dff"/><stop offset="1" stop-color="#c822ff"/></linearGradient><path fill="url(#TlPj9T0U4bMDzbdT5ffZdd)" d="M55.447,21.658l-2.276-4.552C52.831,16.424,52.146,16,51.382,16h-2.655 C45.514,10.052,39.222,6,32,6s-13.514,4.052-16.727,10h-2.655c-0.764,0-1.449,0.424-1.789,1.105l-2.276,4.553 C8.387,21.99,7,24.766,7,26v27.5c0,2.481,2.243,4.5,5,4.5h40c2.757,0,5-2.019,5-4.5V26C57,24.766,55.614,21.991,55.447,21.658z M51.382,18l2.276,4.553c0.226,0.45,0.045,0.83-0.044,0.973C53.526,23.668,53.268,24,52.764,24h-1.814 c-0.111-2.109-0.557-4.127-1.302-6H51.382z M32,8c9.036,0,16.427,7.092,16.949,16h-8.008c-0.499-4.493-4.316-8-8.941-8 s-8.442,3.507-8.941,8h-8.008C15.573,15.092,22.964,8,32,8z M32,20.4c-2.192,0-4.024,1.544-4.483,3.6H25.08 c0.488-3.386,3.401-6,6.92-6s6.432,2.614,6.92,6h-2.437C36.024,21.944,34.192,20.4,32,20.4z M34.398,24h-4.797 c0.393-0.938,1.319-1.6,2.398-1.6S34.006,23.062,34.398,24z M10.342,22.553L12.618,18h1.735c-0.746,1.873-1.192,3.891-1.302,6 h-1.814c-0.504,0-0.763-0.332-0.851-0.475C10.297,23.383,10.116,23.003,10.342,22.553z M55,53.5c0,1.379-1.346,2.5-3,2.5H40.375 c-0.498-0.606-1.243-1-2.088-1H25.714c-0.845,0-1.59,0.394-2.088,1H12c-1.654,0-3-1.121-3-2.5V26c0-0.297,0.056-0.583,0.139-0.86 C9.692,25.685,10.435,26,11.236,26h41.527c0.801,0,1.544-0.315,2.097-0.86C54.943,25.417,55,25.703,55,26V53.5z"/><linearGradient id="TlPj9T0U4bMDzbdT5ffZde" x1="47" x2="47" y1="7" y2="57.157" gradientUnits="userSpaceOnUse"><stop offset="0" stop-color="#1a6dff"/><stop offset="1" stop-color="#c822ff"/></linearGradient><rect width="2" height="4" x="46" y="46" fill="url(#TlPj9T0U4bMDzbdT5ffZde)"/><linearGradient id="TlPj9T0U4bMDzbdT5ffZdf" x1="51" x2="51" y1="7" y2="57.157" gradientUnits="userSpaceOnUse"><stop offset="0" stop-color="#1a6dff"/><stop offset="1" stop-color="#c822ff"/></linearGradient><rect width="2" height="4" x="50" y="46" fill="url(#TlPj9T0U4bMDzbdT5ffZdf)"/><linearGradient id="TlPj9T0U4bMDzbdT5ffZdg" x1="39" x2="39" y1="7" y2="57.157" gradientUnits="userSpaceOnUse"><stop offset="0" stop-color="#1a6dff"/><stop offset="1" stop-color="#c822ff"/></linearGradient><rect width="2" height="4" x="38" y="46" fill="url(#TlPj9T0U4bMDzbdT5ffZdg)"/><linearGradient id="TlPj9T0U4bMDzbdT5ffZdh" x1="43" x2="43" y1="7" y2="57.157" gradientUnits="userSpaceOnUse"><stop offset="0" stop-color="#1a6dff"/><stop offset="1" stop-color="#c822ff"/></linearGradient><rect width="2" height="4" x="42" y="46" fill="url(#TlPj9T0U4bMDzbdT5ffZdh)"/><linearGradient id="TlPj9T0U4bMDzbdT5ffZdi" x1="19" x2="19" y1="7" y2="57.157" gradientUnits="userSpaceOnUse"><stop offset="0" stop-color="#1a6dff"/><stop offset="1" stop-color="#c822ff"/></linearGradient><rect width="14" height="2" x="12" y="48" fill="url(#TlPj9T0U4bMDzbdT5ffZdi)"/><linearGradient id="TlPj9T0U4bMDzbdT5ffZdj" x1="17" x2="17" y1="7" y2="57.157" gradientUnits="userSpaceOnUse"><stop offset="0" stop-color="#1a6dff"/><stop offset="1" stop-color="#c822ff"/></linearGradient><rect width="10" height="2" x="12" y="44" fill="url(#TlPj9T0U4bMDzbdT5ffZdj)"/></svg>
