<svg xmlns="http://www.w3.org/2000/svg"  viewBox="0 0 64 64" width="64px" height="64px"><linearGradient id="rUtSeNpPUCMihhrcTqVwda" x1="32" x2="32" y1="6.25" y2="58.525" gradientUnits="userSpaceOnUse" spreadMethod="reflect"><stop offset="0" stop-color="#1a6dff"/><stop offset="1" stop-color="#c822ff"/></linearGradient><path fill="url(#rUtSeNpPUCMihhrcTqVwda)" d="M55,7H9c-1.654,0-3,1.346-3,3v34c0,1.654,1.346,3,3,3h17v4h-4c-1.654,0-3,1.346-3,3v3h26v-3 c0-1.654-1.346-3-3-3h-4v-4h17c1.654,0,3-1.346,3-3V10C58,8.346,56.654,7,55,7z M42,53c0.551,0,1,0.448,1,1v1H21v-1 c0-0.552,0.449-1,1-1h4h12H42z M36,51h-8v-4h8V51z M56,44c0,0.552-0.449,1-1,1H38H26H9c-0.551,0-1-0.448-1-1V10c0-0.552,0.449-1,1-1 h46c0.551,0,1,0.448,1,1V44z"/><linearGradient id="rUtSeNpPUCMihhrcTqVwdb" x1="32" x2="32" y1="6.25" y2="58.525" gradientUnits="userSpaceOnUse" spreadMethod="reflect"><stop offset="0" stop-color="#1a6dff"/><stop offset="1" stop-color="#c822ff"/></linearGradient><path fill="url(#rUtSeNpPUCMihhrcTqVwdb)" d="M52,11H12c-1.103,0-2,0.897-2,2v26h44V13C54,11.897,53.103,11,52,11z M52,13v2H12v-2H52z M12,37V17h40v20H12z"/><linearGradient id="rUtSeNpPUCMihhrcTqVwdc" x1="49" x2="49" y1="6.25" y2="58.525" gradientUnits="userSpaceOnUse" spreadMethod="reflect"><stop offset="0" stop-color="#1a6dff"/><stop offset="1" stop-color="#c822ff"/></linearGradient><path fill="url(#rUtSeNpPUCMihhrcTqVwdc)" d="M46 41H52V43H46z"/><linearGradient id="rUtSeNpPUCMihhrcTqVwdd" x1="41" x2="41" y1="6.25" y2="58.525" gradientUnits="userSpaceOnUse" spreadMethod="reflect"><stop offset="0" stop-color="#1a6dff"/><stop offset="1" stop-color="#c822ff"/></linearGradient><path fill="url(#rUtSeNpPUCMihhrcTqVwdd)" d="M38 41H44V43H38z"/><linearGradient id="rUtSeNpPUCMihhrcTqVwde" x1="32" x2="32" y1="19.75" y2="33.32" gradientUnits="userSpaceOnUse" spreadMethod="reflect"><stop offset="0" stop-color="#6dc7ff"/><stop offset="1" stop-color="#e6abff"/></linearGradient><path fill="url(#rUtSeNpPUCMihhrcTqVwde)" d="M29.5,33.146c-0.535,0-1.038-0.209-1.416-0.587l-5.291-5.291l1.414-1.414l5.292,5.291 l10.294-10.291l1.414,1.414L30.916,32.56C30.538,32.938,30.035,33.146,29.5,33.146z"/><linearGradient id="rUtSeNpPUCMihhrcTqVwdf" x1="32" x2="32" y1="11.875" y2="16.002" gradientUnits="userSpaceOnUse" spreadMethod="reflect"><stop offset="0" stop-color="#6dc7ff"/><stop offset="1" stop-color="#e6abff"/></linearGradient><path fill="url(#rUtSeNpPUCMihhrcTqVwdf)" d="M12 13H52V15H12z"/></svg>
