<svg xmlns="http://www.w3.org/2000/svg"  viewBox="0 0 64 64" width="64px" height="64px"><linearGradient id="zDoum_DjFEwymqb7g_pQza" x1="32" x2="32" y1="7" y2="57.799" gradientUnits="userSpaceOnUse" spreadMethod="reflect"><stop offset="0" stop-color="#1a6dff"/><stop offset="1" stop-color="#c822ff"/></linearGradient><path fill="url(#zDoum_DjFEwymqb7g_pQza)" d="M55,7H9c-1.654,0-3,1.346-3,3v34c0,1.654,1.346,3,3,3h17v4h-4c-1.654,0-3,1.346-3,3v3h26v-3 c0-1.654-1.346-3-3-3h-4v-4h17c1.654,0,3-1.346,3-3V10C58,8.346,56.654,7,55,7z M42,53c0.551,0,1,0.448,1,1v1H21v-1 c0-0.552,0.449-1,1-1h4h12H42z M36,51h-8v-4h8V51z M56,44c0,0.552-0.449,1-1,1H38H26H9c-0.551,0-1-0.448-1-1V10c0-0.552,0.449-1,1-1 h46c0.551,0,1,0.448,1,1V44z"/><linearGradient id="zDoum_DjFEwymqb7g_pQzb" x1="32" x2="32" y1="7" y2="57.799" gradientUnits="userSpaceOnUse" spreadMethod="reflect"><stop offset="0" stop-color="#1a6dff"/><stop offset="1" stop-color="#c822ff"/></linearGradient><path fill="url(#zDoum_DjFEwymqb7g_pQzb)" d="M52,11H12c-1.103,0-2,0.897-2,2v26h44V13C54,11.897,53.103,11,52,11z M52,13v2H12v-2H52z M12,37V17h40v20H12z"/><linearGradient id="zDoum_DjFEwymqb7g_pQzc" x1="49" x2="49" y1="7" y2="57.799" gradientUnits="userSpaceOnUse" spreadMethod="reflect"><stop offset="0" stop-color="#1a6dff"/><stop offset="1" stop-color="#c822ff"/></linearGradient><path fill="url(#zDoum_DjFEwymqb7g_pQzc)" d="M46 41H52V43H46z"/><linearGradient id="zDoum_DjFEwymqb7g_pQzd" x1="41" x2="41" y1="7" y2="57.799" gradientUnits="userSpaceOnUse" spreadMethod="reflect"><stop offset="0" stop-color="#1a6dff"/><stop offset="1" stop-color="#c822ff"/></linearGradient><path fill="url(#zDoum_DjFEwymqb7g_pQzd)" d="M38 41H44V43H38z"/><linearGradient id="zDoum_DjFEwymqb7g_pQze" x1="32" x2="32" y1="11.875" y2="15.627" gradientUnits="userSpaceOnUse" spreadMethod="reflect"><stop offset="0" stop-color="#6dc7ff"/><stop offset="1" stop-color="#e6abff"/></linearGradient><path fill="url(#zDoum_DjFEwymqb7g_pQze)" d="M12 13H52V15H12z"/><linearGradient id="zDoum_DjFEwymqb7g_pQzf" x1="32" x2="32" y1="18.125" y2="29.307" gradientUnits="userSpaceOnUse" spreadMethod="reflect"><stop offset="0" stop-color="#6dc7ff"/><stop offset="1" stop-color="#e6abff"/></linearGradient><path fill="url(#zDoum_DjFEwymqb7g_pQzf)" d="M30.9,28.005l-0.779-7.79c-0.065-0.65,0.446-1.215,1.1-1.215h1.558 c0.654,0,1.165,0.564,1.1,1.215l-0.779,7.79C33.043,28.57,32.568,29,32,29h0C31.432,29,30.957,28.57,30.9,28.005z"/><linearGradient id="zDoum_DjFEwymqb7g_pQzg" x1="32" x2="32" y1="30" y2="35.501" gradientUnits="userSpaceOnUse" spreadMethod="reflect"><stop offset="0" stop-color="#6dc7ff"/><stop offset="1" stop-color="#e6abff"/></linearGradient><path fill="url(#zDoum_DjFEwymqb7g_pQzg)" d="M34,33c0,1.105-0.895,2-2,2h0c-1.105,0-2-0.895-2-2v0c0-1.105,0.895-2,2-2h0 C33.105,31,34,31.895,34,33L34,33z"/></svg>
