<svg xmlns="http://www.w3.org/2000/svg"  viewBox="0 0 64 64" width="64px" height="64px"><linearGradient id="Qs_Kit1ZDzKuDbi2Q2Geia" x1="32" x2="32" y1="5.875" y2="58.877" gradientUnits="userSpaceOnUse" spreadMethod="reflect"><stop offset="0" stop-color="#1a6dff"/><stop offset="1" stop-color="#c822ff"/></linearGradient><path fill="url(#Qs_Kit1ZDzKuDbi2Q2Geia)" d="M55,7H9c-1.654,0-3,1.346-3,3v34c0,1.654,1.346,3,3,3h17v4h-4c-1.654,0-3,1.346-3,3v3h26v-3 c0-1.654-1.346-3-3-3h-4v-4h17c1.654,0,3-1.346,3-3V10C58,8.346,56.654,7,55,7z M42,53c0.551,0,1,0.448,1,1v1H21v-1 c0-0.552,0.449-1,1-1h4h12H42z M36,51h-8v-4h8V51z M56,44c0,0.552-0.449,1-1,1H38H26H9c-0.551,0-1-0.448-1-1V10c0-0.552,0.449-1,1-1 h46c0.551,0,1,0.448,1,1V44z"/><linearGradient id="Qs_Kit1ZDzKuDbi2Q2Geib" x1="32" x2="32" y1="5.875" y2="58.877" gradientUnits="userSpaceOnUse" spreadMethod="reflect"><stop offset="0" stop-color="#1a6dff"/><stop offset="1" stop-color="#c822ff"/></linearGradient><path fill="url(#Qs_Kit1ZDzKuDbi2Q2Geib)" d="M52,11H12c-1.103,0-2,0.897-2,2v26h44V13C54,11.897,53.103,11,52,11z M52,13v2H12v-2H52z M12,37V17h40v20H12z"/><linearGradient id="Qs_Kit1ZDzKuDbi2Q2Geic" x1="49" x2="49" y1="5.875" y2="58.877" gradientUnits="userSpaceOnUse" spreadMethod="reflect"><stop offset="0" stop-color="#1a6dff"/><stop offset="1" stop-color="#c822ff"/></linearGradient><path fill="url(#Qs_Kit1ZDzKuDbi2Q2Geic)" d="M46 41H52V43H46z"/><linearGradient id="Qs_Kit1ZDzKuDbi2Q2Geid" x1="41" x2="41" y1="5.875" y2="58.877" gradientUnits="userSpaceOnUse" spreadMethod="reflect"><stop offset="0" stop-color="#1a6dff"/><stop offset="1" stop-color="#c822ff"/></linearGradient><path fill="url(#Qs_Kit1ZDzKuDbi2Q2Geid)" d="M38 41H44V43H38z"/><linearGradient id="Qs_Kit1ZDzKuDbi2Q2Geie" x1="32" x2="32" y1="20.125" y2="33.631" gradientUnits="userSpaceOnUse" spreadMethod="reflect"><stop offset="0" stop-color="#6dc7ff"/><stop offset="1" stop-color="#e6abff"/></linearGradient><path fill="url(#Qs_Kit1ZDzKuDbi2Q2Geie)" d="M35.292,33.29c-0.112,0-0.225-0.009-0.337-0.028c-0.64-0.109-1.189-0.525-1.47-1.111 l-4.217-8.817l-3.905,4.604C24.792,28.612,23.957,29,23.071,29H18v-2h5.071c0.295,0,0.574-0.129,0.765-0.354l3.898-4.605 c0.44-0.522,1.107-0.779,1.786-0.694c0.677,0.088,1.258,0.508,1.552,1.125l4.217,8.816l3.417-3.408 C39.274,27.312,40.028,27,40.829,27H46v2h-5.171c-0.264,0-0.522,0.107-0.709,0.294l-3.409,3.409 C36.333,33.082,35.819,33.29,35.292,33.29z"/><linearGradient id="Qs_Kit1ZDzKuDbi2Q2Geif" x1="32" x2="32" y1="11.75" y2="16" gradientUnits="userSpaceOnUse" spreadMethod="reflect"><stop offset="0" stop-color="#6dc7ff"/><stop offset="1" stop-color="#e6abff"/></linearGradient><path fill="url(#Qs_Kit1ZDzKuDbi2Q2Geif)" d="M12 13H52V15H12z"/></svg>