<svg xmlns="http://www.w3.org/2000/svg"  viewBox="0 0 64 64" width="64px" height="64px"><linearGradient id="5ucNpjy5K2PqgWjkegVqha" x1="32" x2="32" y1="6.75" y2="15.75" gradientUnits="userSpaceOnUse" spreadMethod="reflect"><stop offset="0" stop-color="#6dc7ff"/><stop offset="1" stop-color="#e6abff"/></linearGradient><path fill="url(#5ucNpjy5K2PqgWjkegVqha)" d="M12 8H52V14H12z"/><linearGradient id="5ucNpjy5K2PqgWjkegVqhb" x1="31.379" x2="32.629" y1="5.676" y2="58.676" gradientUnits="userSpaceOnUse" spreadMethod="reflect"><stop offset="0" stop-color="#1a6dff"/><stop offset="1" stop-color="#c822ff"/></linearGradient><path fill="url(#5ucNpjy5K2PqgWjkegVqhb)" d="M51,6H13c-1.654,0-3,1.346-3,3v46c0,1.654,1.346,3,3,3h38c1.654,0,3-1.346,3-3V9 C54,7.346,52.654,6,51,6z M13,8h38c0.551,0,1,0.448,1,1v5H12V9C12,8.448,12.449,8,13,8z M51,56H13c-0.551,0-1-0.448-1-1V16h40v39 C52,55.552,51.551,56,51,56z"/><linearGradient id="5ucNpjy5K2PqgWjkegVqhc" x1="31.638" x2="32.888" y1="5.67" y2="58.67" gradientUnits="userSpaceOnUse" spreadMethod="reflect"><stop offset="0" stop-color="#1a6dff"/><stop offset="1" stop-color="#c822ff"/></linearGradient><path fill="url(#5ucNpjy5K2PqgWjkegVqhc)" d="M46,18H18c-1.103,0-2,0.897-2,2v2c0,1.103,0.897,2,2,2h28c1.103,0,2-0.897,2-2v-2 C48,18.897,47.103,18,46,18z M42,20v2H22v-2H42z M18,20h2v2h-2V20z M46,22h-2v-2h2V22z"/><linearGradient id="5ucNpjy5K2PqgWjkegVqhd" x1="22.337" x2="23.587" y1="5.889" y2="58.889" gradientUnits="userSpaceOnUse" spreadMethod="reflect"><stop offset="0" stop-color="#1a6dff"/><stop offset="1" stop-color="#c822ff"/></linearGradient><path fill="url(#5ucNpjy5K2PqgWjkegVqhd)" d="M28,26H18c-1.103,0-2,0.897-2,2v9v1v2c0,1.103,0.897,2,2,2h10c1.103,0,2-0.897,2-2v-2v-2v-8 C30,26.897,29.103,26,28,26z M28,40H18v-2h10V40z M18,36v-8h10v8H18z"/><linearGradient id="5ucNpjy5K2PqgWjkegVqhe" x1="40.327" x2="41.577" y1="5.465" y2="58.465" gradientUnits="userSpaceOnUse" spreadMethod="reflect"><stop offset="0" stop-color="#1a6dff"/><stop offset="1" stop-color="#c822ff"/></linearGradient><path fill="url(#5ucNpjy5K2PqgWjkegVqhe)" d="M46,26H36c-1.103,0-2,0.897-2,2v9v1v2c0,1.103,0.897,2,2,2h10c1.103,0,2-0.897,2-2v-2v-2v-8 C48,26.897,47.103,26,46,26z M46,40H36v-2h10V40z M36,36v-8h10v8H36z"/><linearGradient id="5ucNpjy5K2PqgWjkegVqhf" x1="22.078" x2="23.328" y1="5.896" y2="58.896" gradientUnits="userSpaceOnUse" spreadMethod="reflect"><stop offset="0" stop-color="#1a6dff"/><stop offset="1" stop-color="#c822ff"/></linearGradient><path fill="url(#5ucNpjy5K2PqgWjkegVqhf)" d="M16 44H30V46H16z"/><linearGradient id="5ucNpjy5K2PqgWjkegVqhg" x1="40.068" x2="41.318" y1="5.471" y2="58.471" gradientUnits="userSpaceOnUse" spreadMethod="reflect"><stop offset="0" stop-color="#1a6dff"/><stop offset="1" stop-color="#c822ff"/></linearGradient><path fill="url(#5ucNpjy5K2PqgWjkegVqhg)" d="M34 44H48V46H34z"/><linearGradient id="5ucNpjy5K2PqgWjkegVqhh" x1="18.881" x2="20.131" y1="5.971" y2="58.971" gradientUnits="userSpaceOnUse" spreadMethod="reflect"><stop offset="0" stop-color="#1a6dff"/><stop offset="1" stop-color="#c822ff"/></linearGradient><path fill="url(#5ucNpjy5K2PqgWjkegVqhh)" d="M16 10H22V12H16z"/><linearGradient id="5ucNpjy5K2PqgWjkegVqhi" x1="26.877" x2="28.127" y1="5.782" y2="58.782" gradientUnits="userSpaceOnUse" spreadMethod="reflect"><stop offset="0" stop-color="#1a6dff"/><stop offset="1" stop-color="#c822ff"/></linearGradient><path fill="url(#5ucNpjy5K2PqgWjkegVqhi)" d="M24 10H30V12H24z"/><linearGradient id="5ucNpjy5K2PqgWjkegVqhj" x1="21.983" x2="23.233" y1="5.898" y2="58.898" gradientUnits="userSpaceOnUse" spreadMethod="reflect"><stop offset="0" stop-color="#1a6dff"/><stop offset="1" stop-color="#c822ff"/></linearGradient><path fill="url(#5ucNpjy5K2PqgWjkegVqhj)" d="M18 48H28V50H18z"/><linearGradient id="5ucNpjy5K2PqgWjkegVqhk" x1="39.973" x2="41.223" y1="5.473" y2="58.474" gradientUnits="userSpaceOnUse" spreadMethod="reflect"><stop offset="0" stop-color="#1a6dff"/><stop offset="1" stop-color="#c822ff"/></linearGradient><path fill="url(#5ucNpjy5K2PqgWjkegVqhk)" d="M36 48H46V50H36z"/></svg>