<svg xmlns="http://www.w3.org/2000/svg"  viewBox="0 0 64 64" width="64px" height="64px"><linearGradient id="H5Ca5yJvqmkbS80FXZfwra" x1="32" x2="32" y1="53" y2="55" gradientUnits="userSpaceOnUse" spreadMethod="reflect"><stop offset="0" stop-color="#6dc7ff"/><stop offset="1" stop-color="#e6abff"/></linearGradient><path fill="url(#H5Ca5yJvqmkbS80FXZfwra)" d="M8 53H56V55H8z"/><linearGradient id="H5Ca5yJvqmkbS80FXZfwrb" x1="16" x2="16" y1="12.938" y2="15.291" gradientUnits="userSpaceOnUse" spreadMethod="reflect"><stop offset="0" stop-color="#6dc7ff"/><stop offset="1" stop-color="#e6abff"/></linearGradient><path fill="url(#H5Ca5yJvqmkbS80FXZfwrb)" d="M12 13H20V15H12z"/><linearGradient id="H5Ca5yJvqmkbS80FXZfwrc" x1="26" x2="26" y1="12.938" y2="15.291" gradientUnits="userSpaceOnUse" spreadMethod="reflect"><stop offset="0" stop-color="#6dc7ff"/><stop offset="1" stop-color="#e6abff"/></linearGradient><path fill="url(#H5Ca5yJvqmkbS80FXZfwrc)" d="M22 13H30V15H22z"/><linearGradient id="H5Ca5yJvqmkbS80FXZfwrd" x1="32" x2="32" y1="8.75" y2="51.442" gradientUnits="userSpaceOnUse" spreadMethod="reflect"><stop offset="0" stop-color="#1a6dff"/><stop offset="1" stop-color="#c822ff"/></linearGradient><path fill="url(#H5Ca5yJvqmkbS80FXZfwrd)" d="M55,9H9c-1.654,0-3,1.346-3,3v36c0,1.654,1.346,3,3,3h46c1.654,0,3-1.346,3-3V12 C58,10.346,56.654,9,55,9z M9,11h46c0.552,0,1,0.448,1,1v5H8v-5C8,11.448,8.448,11,9,11z M55,49H9c-0.552,0-1-0.448-1-1V19h48v29 C56,48.552,55.552,49,55,49z"/><linearGradient id="H5Ca5yJvqmkbS80FXZfwre" x1="40" x2="40" y1="8.75" y2="51.442" gradientUnits="userSpaceOnUse" spreadMethod="reflect"><stop offset="0" stop-color="#1a6dff"/><stop offset="1" stop-color="#c822ff"/></linearGradient><path fill="url(#H5Ca5yJvqmkbS80FXZfwre)" d="M28,31h24v-6H28V31z M30,27h20v2H30V27z"/><linearGradient id="H5Ca5yJvqmkbS80FXZfwrf" x1="17.501" x2="17.501" y1="8.75" y2="51.442" gradientUnits="userSpaceOnUse" spreadMethod="reflect"><stop offset="0" stop-color="#1a6dff"/><stop offset="1" stop-color="#c822ff"/></linearGradient><path fill="url(#H5Ca5yJvqmkbS80FXZfwrf)" d="M15.999,29.585l-2.291-2.292l-1.414,1.414L14.586,31c0.39,0.389,0.902,0.583,1.414,0.583 c0.513,0,1.025-0.194,1.416-0.584l5.292-5.292l-1.414-1.414L15.999,29.585z"/><linearGradient id="H5Ca5yJvqmkbS80FXZfwrg" x1="40" x2="40" y1="8.75" y2="51.442" gradientUnits="userSpaceOnUse" spreadMethod="reflect"><stop offset="0" stop-color="#1a6dff"/><stop offset="1" stop-color="#c822ff"/></linearGradient><path fill="url(#H5Ca5yJvqmkbS80FXZfwrg)" d="M28,43h24v-6H28V43z M30,39h20v2H30V39z"/><linearGradient id="H5Ca5yJvqmkbS80FXZfwrh" x1="17" x2="17" y1="8.75" y2="51.442" gradientUnits="userSpaceOnUse" spreadMethod="reflect"><stop offset="0" stop-color="#1a6dff"/><stop offset="1" stop-color="#c822ff"/></linearGradient><path fill="url(#H5Ca5yJvqmkbS80FXZfwrh)" d="M19.829 35.758L17 38.586 14.172 35.758 12.758 37.172 15.586 40 12.758 42.828 14.172 44.242 17 41.414 19.829 44.242 21.243 42.828 18.415 40 21.243 37.172z"/></svg>