<svg xmlns="http://www.w3.org/2000/svg"  viewBox="0 0 64 64" width="64px" height="64px"><linearGradient id="W1g~FKzYbIH_e8a3XqBV3a" x1="32.146" x2="31.813" y1="10.663" y2="56.996" gradientUnits="userSpaceOnUse" spreadMethod="reflect"><stop offset="0" stop-color="#1a6dff"/><stop offset="1" stop-color="#c822ff"/></linearGradient><path fill="url(#W1g~FKzYbIH_e8a3XqBV3a)" d="M53,10H11c-1.654,0-3,1.346-3,3v36c0,1.654,1.346,3,3,3h42c1.654,0,3-1.346,3-3V20v-2v-5 C56,11.346,54.654,10,53,10z M54,49c0,0.551-0.449,1-1,1H11c-0.551,0-1-0.449-1-1V20h44V49z M10,18v-5c0-0.551,0.449-1,1-1h42 c0.551,0,1,0.449,1,1v5H10z"/><linearGradient id="W1g~FKzYbIH_e8a3XqBV3b" x1="32.319" x2="31.986" y1="10.664" y2="56.998" gradientUnits="userSpaceOnUse" spreadMethod="reflect"><stop offset="0" stop-color="#1a6dff"/><stop offset="1" stop-color="#c822ff"/></linearGradient><path fill="url(#W1g~FKzYbIH_e8a3XqBV3b)" d="M14 54H50V56H14z"/><linearGradient id="W1g~FKzYbIH_e8a3XqBV3c" x1="31.995" x2="32.328" y1="14.5" y2="47" gradientUnits="userSpaceOnUse" spreadMethod="reflect"><stop offset="0" stop-color="#6dc7ff"/><stop offset="1" stop-color="#e6abff"/></linearGradient><path fill="url(#W1g~FKzYbIH_e8a3XqBV3c)" d="M15 14H49V16H15z"/><linearGradient id="W1g~FKzYbIH_e8a3XqBV3d" x1="31.79" x2="32.123" y1="14.502" y2="47.002" gradientUnits="userSpaceOnUse" spreadMethod="reflect"><stop offset="0" stop-color="#6dc7ff"/><stop offset="1" stop-color="#e6abff"/></linearGradient><path fill="url(#W1g~FKzYbIH_e8a3XqBV3d)" d="M33.945 35L39.145 44 35.24 44 32 38.375 28.76 44 24.855 44 30.055 35 24.855 26 28.76 26 32 31.625 35.24 26 39.145 26z"/><g><linearGradient id="W1g~FKzYbIH_e8a3XqBV3e" x1="42.863" x2="43.196" y1="14.389" y2="46.889" gradientUnits="userSpaceOnUse" spreadMethod="reflect"><stop offset="0" stop-color="#6dc7ff"/><stop offset="1" stop-color="#e6abff"/></linearGradient><path fill="url(#W1g~FKzYbIH_e8a3XqBV3e)" d="M42.779,41.613l-1.58-1.226c2.403-3.1,2.393-6.312-0.032-9.818l1.645-1.138 C45.756,33.689,45.745,37.788,42.779,41.613z"/></g><g><linearGradient id="W1g~FKzYbIH_e8a3XqBV3f" x1="20.721" x2="21.054" y1="14.616" y2="47.116" gradientUnits="userSpaceOnUse" spreadMethod="reflect"><stop offset="0" stop-color="#6dc7ff"/><stop offset="1" stop-color="#e6abff"/></linearGradient><path fill="url(#W1g~FKzYbIH_e8a3XqBV3f)" d="M21.221,41.613c-2.966-3.825-2.977-7.924-0.032-12.182l1.645,1.138 c-2.425,3.507-2.436,6.719-0.032,9.818L21.221,41.613z"/></g><path fill="none" d="M-2 -2H66V66H-2z"/></svg>
